<?xml version="1.0" encoding="UTF-8"?><svg id="a" xmlns="http://www.w3.org/2000/svg" viewBox="0 0 800 600.7"><path d="M245.39,275.7c-4.66-15.22-1.73-27.81,8.46-31.23-2.26-6.45-2.63-12.95,.9-19.58-6.53-.28-12.53-1.32-16.56-6.77-2.83-3.84-3.85-8.24-3.84-12.95,.02-10.73,4.72-16.71,15.3-19.24-3.28-6.4-2.57-12.87-.3-19.33,2.69-7.62,9.41-8.23,16.27-8.91-6.76-9.29-5.62-18.38-.11-27.33,3.39-5.51,9.16-6.95,14.97-7.95,5.13-.88,10.32-1.4,15.49-1.98,2.23-.25,3.75-.94,3.69-3.58-.11-4.44,.06-8.89-.18-13.33-.13-2.45-1.7-3.29-4.19-2.61-1.91,.52-4.26,.94-5.08-1.51-.93-2.76,.96-4.38,3.35-5.1,11.94-3.64,23.91-7.17,35.87-10.74,26.71-7.98,53.4-16,80.13-23.91,1.71-.51,3.8-.73,5.47-.25,21.07,6.04,42.71,9.05,64.32,12.22,19.66,2.89,39.31,5.82,58.99,8.56,9.38,1.31,18.82,2.2,28.23,3.3,.93,.11,1.84,.36,2.76,.49,2.45,.36,4.55,1.1,4.44,4.17-.1,2.76-2.54,5.43-5.25,5.72-.72,.08-1.46,.09-2.18,.02-2.49-.25-4.91-.57-5.24,3.03-.32,3.56,1.46,6.5,4.56,7.17,4.96,1.08,7.05,3.85,6.7,8.95-.18,2.55-1.33,4.53-3.96,4.93-3.17,.48-6.42,.48-9.6,.91-1.08,.15-2.36,.7-3.07,1.49-3.92,4.37-5.77,9.35-3.97,15.26,.49,1.6,1.31,2.31,3.1,2.38,4.39,.17,5.38,1.55,4.68,6.05,.12,.1,.25,.28,.43,.35,2.06,.7,4.91,1.2,4.49,3.85-.25,1.56-2.66,2.74-4.01,4.18-1.09,1.16-2.44,2.3-2.97,3.71-1.98,5.28-2.09,10.41,2.29,14.79,.43,.43,.86,1.01,.96,1.58,.57,3.16,1.36,6.34,1.44,9.52,.07,2.43-2.11,3.68-4.29,3.73-2.46,.06-4.76,.33-5.77,2.71-1.28,3-2.09,6.2-3.06,9.32-.11,.36,.1,.82,.17,1.23,1.23,6.43,1.5,6.65,7.91,6.64,1.46,0,2.97-.09,4.35,.25,2.63,.66,5.37,9.25,3.5,11.21-1.01,1.05-2.61,1.79-4.06,2.11-2.86,.62-4.02,2.46-4.16,5.06-.15,2.89-.04,5.8-.04,8.6q6.39,2.14,6.72,6.65c2.05,.18,4.13,.29,6.19,.55,2.85,.36,5.22,2.57,5.19,4.99-.03,2.94-2.26,3.93-4.63,4.11-4.43,.35-8.9,.26-13.34,.53-13.43,.83-26.86,1.53-40.26,2.69-10.26,.88-20.48,2.37-30.67,4.05,2.13-.18,4.27-.36,6.4-.54-4,1.93-9.52,1.3-11.18,7.49h7.67c-3.07,1.54-7.05-.46-8.11,3.12-.53,1.79,.82,4.14,1.32,6.24l.9-.18c-.56,.39-1.11,.79-1.99,1.41,1.46,.38,2.55,.66,3.63,.94-.68,.42-1.39,.85-2.09,1.28l.24,.75h21.89l.02,.17-20.62,2.12c.04,.36,.08,.71,.11,1.07,4.91-.42,9.81-.83,14.72-1.25,.03,.26,.06,.53,.09,.79l-14.67,2.26c26.22-.95,52.1-5.34,78.61-8.36-4.17-6.71-4.47-13.65-1.85-20.73,.46-1.23,1.4-2.28,2.11-3.42l.86,.41c-.63,2.98-1.57,5.93-1.81,8.94-.23,2.95-.16,6.05,.5,8.93,1.15,4.98,1.44,4.98,6.48,5.17,4.6,.17,6.12,2.24,5.04,6.98,2.06,.18,4.13,.26,6.17,.56,2.25,.33,4.37,1.58,4.09,3.91-.2,1.61-1.78,3.93-3.2,4.34-3.01,.87-3.65,2.57-3.49,5.21,.17,2.75-.33,5.63,3.3,6.98,1.17,.44,2.43,2.46,2.41,3.73-.02,1.1-1.66,2.39-2.85,3.19-.88,.58-2.2,.66-3.33,.68-2.57,.04-4.8-.02-6.75,2.54-1.05,1.37-3.94,1.76-6.02,1.81-2.43,.06-4,.92-5.01,2.95-3.59,7.23-3.6,14.43,.44,21.5,.97,1.7,2.15,2.96,4.56,1.94,1.26-.54,2.88-.39,4.32-.33,2.97,.14,5.27,1.42,6.03,4.48,.67,2.69-.64,4.5-4.35,6.22,2.45,.69,4.87,.98,6.89,2.04,2.31,1.22,4.7,2.8,6.22,4.84,1,1.34,.53,3.78,.72,5.73-2.07,.17-4.14,.42-6.22,.47-.53,.01-1.07-.6-1.6-.91-5.5,4.75-9.04,10.22-6.62,18.18,1.19-.28,2.26-.61,3.35-.77,2.55-.39,5.39,1.12,5.8,3.21,.53,2.69-1.24,4.07-3.39,4.91-1.99,.78-4.1,1.26-6.79,2.07,2.31,.41,3.97,.74,5.64,1,2.31,.36,4.45,1.12,4.65,3.79,.19,2.64-1.79,4.11-3.98,4.52-4.25,.8-6.13,3.56-6.95,7.36-.86,3.96,.82,7.35,2.84,10.55,.32,.5,1.43,.68,2.18,.71,13.87,.46,27.73,.88,41.6,1.29,4.15,.12,6.02,2.15,5.9,6.31-.07,2.28-1.11,3.74-3.2,4.49-.78,.28-1.59,.5-2.41,.66-6.92,1.3-7.8,2.32-8.31,9.36-.46,6.29,1.21,12.14,3.42,17.91,.44-.02,.77,.03,1.05-.06,4.68-1.39,6.95-.64,7.94,2.64,1.27,4.23-.3,7.35-4.67,8.76-11.49,3.7-23.01,7.31-34.52,10.96-1.79,.57-3.51,1.49-5.34,1.76-6.18,.9-8.73,5.44-10.95,10.41-1.5,3.36-.34,6.56,.69,9.71,.18,.55,1.45,.83,2.26,1.07,2.27,.68,4.67,1.03,6.81,1.97,2.5,1.1,2.68,3.17,.54,4.89-1.1,.89-2.49,1.52-3.84,1.97-31.11,10.31-62.23,20.58-93.35,30.86-2.96,.98-5.98,1.86-8.82,3.13-5.69,2.54-11.28,1.03-16.87-.1-44.12-8.91-88.23-17.88-132.35-26.82-33.73-6.84-67.47-13.65-101.21-20.48-4.48-.91-8.96-1.84-13.46-2.68-2.67-.5-4.43-1.88-5.63-4.38-4.91-10.23-2.72-19.48,6.53-26.57-9.92-7.5-11.12-17.97-9.52-29.14,1.56-10.91,8.85-17.51,20.48-19.13,4.82-.67,9.65-1.27,15-1.97-5.47-5.01-7.37-10.98-6.61-17.76,.75-6.64,3.93-11.99,10.01-16.36-2.65-.49-4.69-.9-6.74-1.23-7.25-1.17-12.93-7.38-13.45-14.73-.76-10.86,.7-15.26,8.24-24.48-.59-.22-1.11-.5-1.65-.59-7.88-1.23-11.74-6.14-12.5-13.77-.72-7.24,.29-14.29,4.4-20.36,2.01-2.98,5.26-5.12,8.07-7.76-.45-3.01-1.35-6.65-1.47-10.32-.2-6.34,3.17-9.89,9.58-10.39,5.4-.42,10.82-.54,16.43-.81Zm301.15-29.82c-16.2,1.29-32.4,2.57-48.6,3.86l.06,.77c10.81-.85,21.62-1.62,32.42-2.6,5.38-.49,10.73-1.36,16.09-2.06,2.58-.19,5.17-.56,7.75-.51,4.58,.08,9.23-1.75,13.77,.67,.79,.42,2.26-.44,3.42-.71l-.21-1.25c-8.3-.72-16.48,.89-24.7,1.84Zm-41.28,280.82c17-5.62,33.99-11.23,50.98-16.87,1.66-.55,3.25-1.29,4.87-1.95-16.3,4.93-32.43,10.21-48.52,15.6-2.51,.84-4.87,2.16-7.29,3.26-1.13,.02-2.34-.22-3.38,.1-5.67,1.74-11.33,3.53-16.93,5.48-2.24,.78-4.33,1.98-6.5,2.99l.26,.52c8.84-3.04,17.67-6.08,26.51-9.12Zm95.21-87.77c-6.2,1.24-12.5,2.1-18.58,3.79-22.31,6.18-44.55,12.6-66.8,18.98-8.18,2.35-16.32,4.84-24.47,7.27,4.14-.6,8.09-1.83,12.1-2.87,4.69-1.22,9.42-2.29,14.14-3.42-.52,.28-1.01,.68-1.57,.84-10.17,2.95-20.32,5.93-30.53,8.74-2.46,.68-3.78,1.81-3.87,4.42-.12,3.54-.37,7.07-.64,10.6-.1,1.37-.4,2.72-.61,4.08-.34-.04-.68-.08-1.02-.11,.39-6.79,.78-13.57,1.17-20.36l-.88-.02c-.16,7.35-.37,14.69-.43,22.04-.02,2.16,1.55,2.5,3.32,2.06,5.85-1.47,11.73-2.81,17.51-4.5,29.13-8.51,58.23-17.14,87.36-25.67,6.86-2.01,13.78-3.79,20.56-5.65-1.22-4.86-2.42-9.34-3.43-13.86-.47-2.09-.59-4.25-.86-6.38l-2.46,.03Zm-164.69-127.77l-.05-.03c3.13,.18,6.26,.36,8.59,.49-.58-7.58-1.11-14.63-1.68-22h-4.66c-2.24,7.24,.4,14.05,.8,20.98-3.72-6.67-2.82-13.84-2.14-21.5-9.24-.43-18.4-.85-28.49-1.32,.75,7.02,1.38,13.29,2.13,19.55,.2,1.64,1.27,2.29,3.06,2.38,7.48,.38,14.96,.95,22.44,1.46Zm28.36,88.5c2.68-.2,5.36-.41,8.04-.61,.4-1.95,.8-3.9,1.33-6.48-1.86,1.42-1.93,4.19-4.29,3.02-.8-.4-1.15-1.71-1.76-2.68-.77,.32-1.8,1.05-2.85,1.1-.91,.04-2.62-.64-2.65-1.08-.13-2.11-1.51-2.12-2.95-2.27-1.19-.13-2.38-.32-3.78-.51l-1.19,2.71c-1.09-2.65-2.59-3.22-4.7-.9-.21-1.33-.35-2.15-.55-3.38-.86,.43-1.6,.67-2.18,1.12-4.47,3.49-5.51,3.09-9.55-1.23-1.06-1.13-3.11-3.96-6.22-1.53-1.44,1.13-5.27,1.7-5.94,.87-2.03-2.55-3.15-1.66-4.84,.79v-3.56c-1.26,.1-2.34,.19-3.42,.28l-.11,.52c.99,.44,1.98,.88,3.09,1.37-2.69,1.97-5.75,.95-6.63-1.88-.22-.71-.87-1.29-1.33-1.94,.21,6.6,2.15,12.12,5.18,15.44,1.23,1.34,3.12,2.44,4.9,2.85,4.55,1.04,9.19,1.71,13.82,2.38,10.77,1.57,21.55,3.14,32.35,4.51,2.05,.26,4.22-.42,6.93-.73-3.83-.87-6.93-1.61-10.05-2.26-.51-.11-1.17,.06-1.64,.33-2.75,1.57-4.95,.33-7.18-.85v-1.08l4.62-.51c1.52-1.6,2.54-2.69,3.57-3.77Zm46.39,17.03c1.01-.46,1.97-1.11,3.03-1.34,8.3-1.84,16.62-3.65,24.95-5.37,8.33-1.72,16.69-3.29,25.01-5.06,.9-.19,1.6-1.28,2.59-2.11-32.19,6.64-63.8,13.16-95.41,19.68,.07,.42,.13,.84,.2,1.26,3.52-.38,7.03-.75,10.55-1.13-3.81,1.07-7.61,2.14-11.42,3.2l.15,.66c.54,.07,1.08,.13,1.91,.23-1.1,.66-1.96,1.18-3.31,1.99,1.11-.08,1.67-.12,2.49-.18-.58,1.39-1.12,2.66-1.69,4.03,31.43-6.95,62.98-13.93,94.53-20.91-.78,1.02-1.76,1.42-2.78,1.66-8.18,1.93-16.35,3.92-24.56,5.73-20.99,4.64-41.99,9.17-62.97,13.83-1.59,.35-3.02,1.38-4.53,2.1l.29,.6,11.03-1.75,.09,.58c-3.45,.94-6.9,1.88-10.35,2.81l.16,.59h4.82c-1.48,.68-2.35,1.08-3.92,1.81h5.37l.07,.39c-1.24,.38-2.48,.76-3.72,1.14l.06,.33c3.85-.65,7.71-1.29,11.56-1.94l.09,.46c-3.26,.79-6.52,1.58-9.78,2.36l.04,.77c4.9-.34,9.98,.03,14.67-1.14,20.86-5.24,41.61-10.93,62.4-16.43,6.07-1.61,12.16-3.15,18.51-4.79-4.13-4.33-5.98-9.24-6.04-14.76-8.14,1.56-16.01,3.01-23.85,4.57-10.08,2-20.14,4.09-30.21,6.14Zm-26.71-34.82c5.35-4.88,11.53-8.14,18.67-9.55,20.98-4.15,41.95-8.32,62.81-12.45-9.93,.36-19.88,2.98-30.03,2.26,4.74-.6,9.49-1.2,14.23-1.8l-.03-.32c-5.33,.48-10.66,.96-16.09,1.44v2.24c-1.58,.26-3.59,.06-3.98,.76-1.31,2.36-2.5,1.38-3.94,.21v1.98c-.78-.65-1.27-1.06-1.75-1.46-.26,.67-.46,1.17-.91,2.34-1.28-1.78-2.2-3.06-3.59-4.99,.58,2.18,.97,3.63,1.53,5.74-.96-.65-1.29-.76-1.42-.98q-2.49-4.37-7.45-3.58c-.72,.11-1.47,.07-2.18,.2-6.74,1.3-13.48,2.58-20.21,3.95-1.87,.38-3.09,1.33-3.11,3.6-.02,2.17-.53,4.33-.83,6.5l-.76-.04v-7.58l-.98-.33c-.43,1.11-1.25,2.24-1.23,3.34,.06,2.69,.5,5.38,.79,8.07-1.03-2.72-2.07-5.45-3.1-8.17l-.51-.04v9.16l-.84,.31c-1.01-.88-2.03-1.77-3.5-3.06l1.81,5.97-.79,.26c-.73-1.54-1.45-3.08-2.12-4.5-.32,.46-.67,.97-1.02,1.48l-.89-.35c.32-1.03,.55-2.11,1-3.08,.33-.71,1.37-1.24,1.41-1.9,.43-6.47,4.97-8.97,10.22-10.79,10.91-3.77,22.31-5.03,33.69-6.21,12.96-1.34,25.93-2.66,38.93-3.49,8.01-.51,16.48-3.29,23.75,2.89,.09,.08,.36-.07,.55-.11-.65-3.06-1.98-4.77-5.33-5.76-6.13-1.82-12.39-2.68-18.83-1.82-9.3,1.24-18.61,2.42-27.92,3.52-12.32,1.46-24.67,2.69-36.97,4.26-9.48,1.21-18.91,2.88-28.38,4.18-3.07,.42-6.21,.33-9.97,.51l2.37,.53c-5.53,0-10.89-.49-16.11,.18-3.35,.43-6.01,.05-9.24-.94-5.25-1.6-10.97-1.73-16.5-2.33-.51-.06-1.5,.86-1.66,1.47-1.19,4.61-2.27,9.25-3.27,13.9-.45,2.1,.6,2.83,2.74,3.07,9.62,1.08,19.2,2.43,28.81,3.57,6.66,.79,13.34,1.4,19.68,2.06,.55-1.63,.92-2.75,1.3-3.87q.89,3.86,2.55,4.19c.13-.94,.26-1.86,.51-3.63,.88,1.83,1.39,2.89,1.7,3.54,3.06,.32,6.08,1.43,8.5,.67,2.9-.91,5.29-3.42,7.9-5.24Zm30.24-284.6c4.96,.51,9.92,1.05,14.89,1.52,9.57,.91,19.15,1.77,28.73,2.66,.06-.39,.12-.79,.18-1.18-7.79-2.77-16.15-2.66-24.24-3.75-8.46-1.14-16.98-1.85-25.47-2.77-8.26-.9-16.52-1.83-24.78-2.74l.07-.65c21.85,1.99,43.7,3.99,65.55,5.98l.04-.49c-18.56-2.47-37.12-4.94-55.68-7.41l.09-.83,63.94,7.2,.08-.86c-2.69-.3-5.39-.49-8.06-.9-18.83-2.89-37.65-5.88-56.5-8.73-25.84-3.91-51.7-7.71-77.54-11.64-2.23-.34-3.69-.05-4.2,2.58,1.38,.44,2.79,.89,4.19,1.34l-.11,.5-4.75-.4-.09,.39,1.94,.62-2.62,.45c2.93,.48,5.19,.85,7.45,1.22l-.07,.65-7.91-.53c-.31,1.09-.59,2.07-.93,3.28,8.3,1.18,16.38,2.32,24.45,3.47l-.09,.69c-8.08-.94-16.17-1.89-24.25-2.83-.08,.33-.16,.65-.23,.98,2.22,2.45,5.84,1.11,8.41,2.98-2.74-.26-5.49-.52-8.23-.77l-.28,1.13c3,2.89,7.54,1.44,10.95,3.53l-9.73-.73c.7,.95,1.56,1.52,2.46,1.61,4.87,.49,9.74,.92,14.62,1.27,12.58,.91,25.18,1.51,37.73,2.71,13.78,1.32,27.49,3.27,41.25,4.77,15.94,1.73,31.9,3.31,47.86,4.84,3.19,.3,6.43,.04,9.64,.04l.2-.9c-1.88-.75-3.69-1.91-5.64-2.18-8.86-1.26-17.77-2.23-26.65-3.39-5.64-.74-11.26-1.63-16.89-2.46l.19-.24Zm-169.96,205.09c2.44,.87,3.18,.31,2.66-2.44-.62-3.36-.68-6.82-.99-10.24,1.5,4.63,.93,9.65,3.38,13.93l1.08-.16c-.22-4.77-.44-9.53-.66-14.3l.75-.02c.12,2.49,.09,5,.4,7.46,.68,5.51,.75,5.5,2.95,6.01-.22-4.51-.44-9.04-.66-13.58l.91-.02c.69,4.76-.4,9.89,2.04,14.3,.31-.05,.62-.1,.93-.15v-12.85c.5,3.4,.75,6.82,1.18,10.21,.12,.92,.75,2.47,1.26,2.52,2.68,.25,5.4,.12,8.14,.12-1.39-12.03-1.38-13.03,.17-15.36-.72,8.26,1.31,17.27,3.78,18.8-.44-5.66-.91-11.69-1.38-17.72l1.1-.06c0,1.13-.15,2.28,.03,3.38,.67,4.3,1.34,8.6,2.25,12.85,.18,.85,1.42,1.48,2.17,2.21l.71-.66c-2.12-5.56-3.03-11.23-1.76-17.09,.39,5.93,.53,11.88,4.23,17.75-.41-5.66-.76-10.55-1.12-15.45l.82-.1c.16,5.49,.06,11.06,3.72,16.46-.56-5.94-1.04-11.02-1.52-16.11l.55-.04c.99,5.06,1.98,10.11,2.97,15.17l.82-.17c-.33-1.5-.72-3-.96-4.52-.24-1.54-.38-3.11-.46-4.67-.07-1.41-.02-2.83-.02-4.25,1.16,4.66,1.12,9.46,3.87,13.57-.42-5.18-.85-10.37-1.27-15.55,1.61,5.11,.84,10.66,3.62,15.39l.81-.13c-.52-5.47-1.04-10.93-1.56-16.4,2.16,12.21,2.99,15.47,4.83,16.81-.7-6.72-1.39-13.45-2.1-20.25-.2-.05-.5-.17-.79-.19-19.71-.86-39.42-1.73-59.12-2.57-11.99-.51-23.99-1.01-35.98-1.46-21.06-.79-42.12-1.56-63.18-2.25-2.05-.07-4.21,.16-6.16,.75-1.24,.38-2.6,1.47-3.22,2.61-1.7,3.15,.92,10.92,4.09,12.91-.21-2.68-.73-5.38-.54-8.03,.18-2.53,1.11-5,1.7-7.5l.8,.22c-1.52,11.2-1.37,13.24,1.28,15.78-.06-4.99-.99-10.03,1.77-14.6,.08,.99-.13,1.94-.27,2.9-.15,1.08-.23,2.17-.41,3.94l3.11-7.92,.82,.24c-2.2,5.38-1.09,10.43,1.21,16.18v-13.58h.86c0,2.38-.2,4.78,.06,7.13,.25,2.25,.99,4.44,1.51,6.66l.76-.18q-1.3-12.33,.54-15.11c-.69,9.27-.08,12.91,2.61,15.14-.38-2.25-.94-4.38-1.03-6.54-.09-2.13,.29-4.29,.46-6.44,.86,4.53,.03,9.26,2.96,13.4v-13.68l.84-.07c.22,4.85-.4,9.87,2.66,14.11-.08-2.67-.7-5.28-.81-7.91-.11-2.65,.28-5.32,.45-7.98q1.48,13.67,3.46,15.6c-1.71-10.38-1.73-11.53-.23-15.55,0,2.17-.14,4.22,.04,6.24,.19,2.17,.7,4.3,1.03,6.46,.43,2.77,2.19,3.75,4.81,3.84,2.81,.1,5.61,.45,8.43,.56,2.32,.1,4.66,.02,7.1,.02-.58-2.5-1.06-4.57-1.53-6.64l.56-.15c.39,.93,.77,1.87,1.4,3.38-.18-2.95-.32-5.23-.46-7.51,2.27,10.76,2.45,11.19,4.89,11.31-.52-5.23-1.05-10.51-1.57-15.78l.82-.08c.33,2.98,.57,5.97,1.02,8.93,.79,5.17,1.98,6.85,4.03,6.67-.22-5.05-.45-10.09-.67-15.13l.89-.06c.24,5.14-.38,10.43,2.66,15.08v-15.46c.66,5.42,1.16,10.06,1.87,14.68,.13,.83,1.13,1.52,2.21,2.89-.32-6.37-.58-11.59-.84-16.81l.85-.04c.21,2.77,.2,5.58,.68,8.3,1.16,6.64,1.25,6.62,2.68,7.56-1.89-10.35-1.93-11.88-.13-16.93-.54,6.67-.18,12.44,3.1,17.61-.3-4.98-.61-9.95-.91-14.93l.61-.02c.55,4.11,1.11,8.22,1.66,12.33,.5-.02,1-.03,1.5-.05v-12.54l.88-.02c.08,5.01-.15,10.09,3.19,14.4l-.67-9.52,.46-.04c.69,3.15,1.38,6.31,2.06,9.46l.85-.21v-11.06l.19-.02c.4,2.82,.81,5.64,1.21,8.46l.52-.04v-9.1h.33c.78,4.13,1.56,8.26,2.34,12.39l.51-.06v-3.38l.42-.14c.63,1.32,1.26,2.65,1.89,3.97l.4-.27c-.19-3.86-.38-7.72-.57-11.59,1,3.98,.78,8.2,3.47,11.57v-12.55c.54,3.4,1.03,6.46,1.52,9.52l.47-.09c.16-.99,.33-1.97,.4-2.39,.95,2.45,2.03,5.25,3.11,8.04l.52-.3c-.56-5.13-1.12-10.26-1.68-15.39l.68-.07c.79,4.63,1.58,9.27,2.37,13.9l.97-.05c.34-1.83,.68-3.67,1.17-6.3,.56,1.7,.77,2.74,1.24,3.64,.49,.94,1.21,2.46,1.89,2.5,5.09,.27,10.21,.23,15.31,.28l-.04,.04Zm36.79-129.45c-.41-2.58-.82-5.16-1.23-7.74l.63-.1c.69,2.77,1.38,5.54,2.06,8.31l.65-.06v-17.3l.12,.03c.75,6.07,1.5,12.15,2.25,18.22l1.74-.12c.2-3.8,.4-7.6,.64-12.17,.51,3.68,.09,6.92,3.58,8.85-.31-3.4-.59-6.49-.87-9.58,1.58,4.69,.94,10.2,6.89,12.84l-.72,.67c-1.36,.15-2.71,.3-4.87,.53,22.13-.98,43.44-1.93,64.75-2.87l-.02,.79c-5.38-.57-10.76-1.28-16.15-1.67-3.48-.25-5.51-1.96-6.77-5.07-3.09-7.58-2.5-14.63,3.32-21.57-19.75,1.98-38.93,3.93-58.11,5.81-17.84,1.75-35.69,3.43-53.54,5.15-21.37,2.06-42.74,4.13-64.11,6.22-3.46,.34-6.62,1.33-8.13,4.88-1.92,4.52-2.02,9.04,.08,13.3,3.27-1.83,5.93,.25,8.2,.81-.21-3.71-.44-7.58-.66-11.44l.68-.04c.13,2.16,.25,4.33,.38,6.49l.69-.04c.16-1.14,.32-2.28,.57-4.06,1.31,7.97,1.79,9.07,4.73,11.48-2.82-5.66-3.71-14.65-1.38-18.04,.44,4.66,.94,9.87,1.44,15.2l3.35-.81c-1.76-6.85-1.25-13.43,1.33-16.61-1.19,12.13-.92,14.84,1.31,17.77,1.53-1.24,3.08-2.5,4.78-3.87-.18-1.33-.5-2.98-.61-4.64-.11-1.64-.02-3.29-.02-4.94,1.28,8.98,1.3,9.06,3.39,10.64-.38-3.21-.74-6.23-1.16-9.8,2.79,4.15-.16,10.79,7.21,11.29-.37,1.16-.66,2.06-1.14,3.53,3.76-.3,7.06-.77,10.35-.75,2.8,.02,4.88-.64,5.78-3.65l1.5,1.34c-.35-1.47-.67-2.81-1-4.16l.47-.13c.81,1.44,1.61,2.87,2.42,4.31l.37-.24c-.16-1.1-.32-2.2-.48-3.29,1.77,.83,3.4,1.58,4.47,2.08-.7-5.65-1.42-11.51-2.15-17.37l.61-.06c1.15,6.01,2.31,12.02,3.46,18.03l1.08-.17v-3.05l1.39,1.48c-2.49-9.18-2.75-13.57-1.09-17.03,.15,2.95,.1,5.88,.51,8.75,.39,2.69,1.27,5.32,1.93,7.97l1-.22c-.32-2.25-.75-4.48-.91-6.74-.16-2.27-.03-4.57-.03-6.85h.89c0,1.75-.23,3.54,.05,5.24,.44,2.61,.61,5.64,2.08,7.6,1.31,1.76,4.22,2.33,6.9,3.65l-3.49,.22,.06,.55c2.53-.3,5.06-.59,7.61-.89-.43-3.74-.81-7.05-1.18-10.36l.61-.08c.7,2.54,1.39,5.08,2.09,7.62,1.03-.67,1.57-1.42,1.54-2.15-.1-2.18-.7-4.37-.59-6.52,.19-3.82,.76-7.61,1.18-11.42l1.06,.12v17.3c2.61-.45,4.63-.81,6.38-1.11v-14.88l.39-.03c.39,5.09,.78,10.18,1.16,15.18h9.57c-.27-3.99-.56-8.22-.84-12.44,1.08,3.04,.94,6.27,1.88,9.16,.88,2.71,2.91,5.05,4.64,7.88,3.73-.22,7.99-.46,12.26-.75,1.67-.11,2.54-.68,.97-2.25l.02,.03c-.5-6.57-2.71-13.12-.23-19.71,.37,3.82-.09,7.71,.51,11.44,.48,3,2.22,5.81,3.4,8.7,2,.34,4,.67,6.47,1.09l-.36-3.71Zm74.7,369.42c3.97,.75,5.1-.25,4.45-4.03-.55-3.16-1.18-6.31-1.77-9.46,.31-.05,.62-.11,.94-.16,.84,1,1.08,1.65,.78,3.46-.4,2.45,1.49,5.29,2.46,7.94,.11,.3,.59,.46,1.84,1.38,.1-1.95,.5-3.24,.17-4.29-1.42-4.56-1.75-9.13-.94-13.83,.61-3.57,1.09-7.16,1.62-10.73l-.6-.94c-8.13-1.69-16.23-3.51-24.38-5.03-15.81-2.95-31.65-5.76-47.49-8.58-17.21-3.06-34.43-6.05-51.65-9.08-18.44-3.25-36.88-6.5-55.31-9.78-24.26-4.32-48.52-8.71-72.79-12.95-1.57-.27-3.59,.12-4.97,.93-4.66,2.74-7.39,6.96-8.12,12.35-.83,6.06,3,11.63,8.39,12.2,0-4.22-.3-8.47,.09-12.65,.38-4.11,.97-8.34,4.25-11.49,.06,1.17-.16,2.26-.47,3.32-1.78,6.18-2.66,12.38-1.34,18.82,.46,2.24,1.43,3.21,3.57,3.54,2.77,.44,5.51,1.1,8.27,1.64,6.5,1.27,13,2.52,19.19,3.72,.24-5.48,.47-10.62,.7-15.77,.8,4.7,1.14,9.37,1.58,14.02,.18,1.86,.92,3.2,2.8,2.46v-20.43h.75c0,1.02-.05,2.05,0,3.07,.27,5.06,.38,10.15,.98,15.17,.15,1.28,1.67,3.07,2.9,3.43,3.75,1.11,7.66,1.63,11.71,2.42-1.64-7.7-2.11-15.15-.21-21.78,.35,5.82,.66,12.31,1.19,18.78,.1,1.2,1.05,2.33,1.6,3.49l-.04-.04,6.11,1.3c.56-6.83,1.08-13.15,1.6-19.48,.47,5.54,.33,11.01,.06,16.48-.11,2.26,.76,3.44,3.23,3.7l.32-6.42,.54-.03,.43,1.89c.24-.38,.52-.83,1.22-1.96,.2,2.65,.34,4.49,.48,6.33l.25-.04c.22-1.63,.45-3.27,.67-4.9l.69,.07,.38,5.71,.24-.04c.3-4.64,.6-9.28,.9-13.92h.72v13.88c.32,0,.64,0,.96,0v-13.08l.43,.04c.43,4.71,.87,9.42,1.3,14.13l1.12-.03v-18.5h1.21v19.44c.35,0,.7,0,1.06,0-.2-7.58-.49-15.18,1.77-22.44v21.2h.2v-14.48c.6,5.22,1.08,9.84,1.71,14.44,.13,.92,.7,2.39,1.31,2.53,4.39,1.04,8.84,1.8,13.19,2.63v-12.25c.91,3.7,1.92,7.85,2.94,12l.67-.1v-15.68h.8c0,1.13-.05,2.25,0,3.37,.2,4.06,.39,8.12,.71,12.17,.05,.63,.76,1.21,1.16,1.81,.31-.67,.84-1.33,.89-2.02,.23-3.09,.33-6.19,.47-9.19,.43,3.92,.86,7.89,1.3,11.87,.5-.03,1-.07,1.49-.1v-17.33c.31,0,.62,0,.93,0,0,5.17-.05,10.33,.05,15.5,.02,.86,.58,2.34,1.14,2.47,4.81,1.11,9.67,1.97,14.42,2.89,.2-4.05,.37-7.62,.55-11.19,1.12,4.09,.27,8.64,2.97,12.16l1.03-.24c-.14-2.37-.27-4.74-.41-7.11l.88-.11c.56,2.61,1.12,5.22,1.69,7.84l.88-.18v-11.06h.31l1.27,11.12,.31-.05v-6.81l.42-.03c.33,1.9,.65,3.8,1.02,5.91l.82-1.97v3.8l.57,.02v-5.26l.53-.03c.41,1.99,.83,3.99,1.26,6.05,4.06,.84,8.07,1.67,12.36,2.56-.92-6.96-.99-13.42,1.19-19.97,0,6.09,.01,11.85,0,17.61,0,2.05,1,3.06,2.99,3.2l-.05-.05c.81,.18,1.66,.25,2.43,.55,2.79,1.09,3.35-.31,3.09-2.68-.09-.83-.32-1.65-.32-2.48,0-5.15,.07-10.3,.11-15.45,.37,0,.74-.01,1.11-.02-1.08,7.21-1.06,14.31,1.64,21.63,.13-2.44,.2-4.39,.35-6.33,.15-1.95,.38-3.89,.57-5.83l.72,.04v11.56h.84v-7.88c1.52,3.09,.07,6.94,3.26,9.92,.21-4.45,.4-8.38,.59-12.31,.27,0,.54,.02,.81,.03,0,2.39-.05,4.78,.01,7.17,.06,2.23-.29,4.73,3,5.96-.23-2.64-.42-4.76-.61-6.88l.86-.14c1.1,2.3-.31,5.65,2.75,7.5v-10.88h.51c.15,2.49,.29,4.97,.45,7.78,.85-1.07,1.48-1.87,1.89-2.39,.73,2.14,1.51,4.43,2.29,6.72,.36-.05,.72-.09,1.08-.14,2.02-5.14,5.07-9.97,4.2-16.01,.38,3.1,.29,6.13,.4,9.14,.11,2.93-.23,6.04,2.64,8.25-.28-1.72-.57-3.43-.85-5.15,1.34,1.87,1.79,4.4,3.29,5.52,1.59,1.18,4.17,1.03,6.32,1.46v-11.6c.83,3.75,1.39,7.51,2.08,11.25,.08,.45,.77,1.02,1.26,1.14,4.29,.98,8.6,1.87,13.24,2.85v-18.8c.3,0,.61,0,.91-.01v16.32h.39l.28-1.65,.56,.06v3.57l.55-.02v-14.03h.2c.38,4.8,.76,9.59,1.13,14.38l.71-.07v-4.66c.78,.67,1.23,1.44,1.15,2.15-.4,3.23,1.19,4.31,4.16,4.83,5.53,.97,10.99,2.33,16.49,3.53,1.2,.32,2.41,.63,3.61,.95Zm95.28-145.41c6.1-1.32,12.21-2.63,18.24-3.93-5.6-3.24-11.19-1.83-16.75-.05v3.61c-1.04-1.53-1.6-2.35-2.53-3.72v3.73c-1.06-.28-2.12-.55-3.25-.85-.02,.06-.24,.82-.47,1.58l-.62-.09c-.16-.77-.33-1.53-.49-2.29l-2.65,1.99c-.25-.54-.47-1-.81-1.73-.51,1.17-.83,1.9-.78,1.8-1.5-.32-2.46-.83-3.26-.65-5.98,1.36-11.99,2.66-17.88,4.35-10.48,3.01-20.88,6.28-31.31,9.44-.5,.15-1.01,.26-1.51,.41-9.26,2.8-18.46,2.82-28.05,1.11-15.76-2.8-31.7-4.59-47.56-6.88-1.6-.23-2.63,.03-3.2,1.57-.02,.07-.29,.04-.55,.08,.06-.73,.12-1.4,.19-2.13-1.68-.25-3.21-.55-4.76-.68-.59-.05-1.27,.53-1.8,.41-1.14-.27-2.18-1.04-3.32-1.22-9.25-1.45-18.52-2.8-27.78-4.2-12.76-1.94-25.5-4.02-38.28-5.82-15.27-2.16-30.56-4.13-45.85-6.12-13.53-1.76-27.07-3.42-40.6-5.16-4.59-.59-8.36,.84-11.56,4.17-4.18,4.36-5.8,9.58-5.27,15.46,.54,5.96,4.54,9.57,10.42,10.79,3.1,.64,7.15-.77,8.89,3.12,1.27-.52,2.37-.97,3.47-1.42l-.27,.9c1.04,.57,2.03,1.33,3.14,1.66,1.59,.47,3.26,.66,4.9,.93,11.5,1.86,23,3.71,34.5,5.57l-.06-.04c6.85,1.19,13.69,2.45,20.57,3.46,.75,.11,1.93-1,2.52-1.83,.89-1.24,1.44-2.73,2.14-4.11l.69,.19c.29,1.92,.58,3.84,.87,5.76l.47-.09,.59-2.14c.65,.5,1.08,.76,1.41,1.11,.95,1,1.9,2.9,2.8,2.88,2.22-.06,4.71-.54,6.54-1.71,2.81-1.8,3.28-1.91,4.42,1.2,.18,.5,.67,1.11,1.12,1.22,.36,.09,.95-.44,1.33-.82,.38-.38,.61-.9,1.14-1.71,.38,1.39,.64,2.31,.97,3.5,.75-.66,1.24-1.09,1.73-1.52l.42,.48c-.51,.66-1.03,1.31-1.45,1.85,1.41,.29,2.97,.65,4.54,.91,10.16,1.67,20.32,3.38,30.5,4.95,3.45,.53,6.95,.67,10.43,.98,.95-.14,1.9-.29,2.85-.43,.94,.22,1.92,.33,2.8,.68,1.86,.74,3.59,1.97,5.51,2.37,4.37,.9,8.83,1.4,13.24,2.1,13.96,2.22,27.9,4.58,41.88,6.63,6.47,.95,13.02,1.31,19.53,1.94l-.05-.57c-1.36-.73-2.71-1.46-4.07-2.19l.04,.05c-4.15-5.71-4.88-12.24-4.6-19.03,.21-5.06,3.48-9.53,8.18-10.58,18.17-4.05,36.36-7.99,54.54-11.99,15.12-3.33,30.23-6.67,45.34-10.06,1.08-.24,2.07-.85,3.1-1.3-1.53-.71-2.9-.94-4.15-.67-13.61,2.93-27.25,5.75-40.8,8.98-20.95,5-41.83,10.3-62.73,15.49-5.39,1.34-8.51,5.18-8.91,10.69-.08,1.09-.38,2.16-.58,3.23-1.97-8.16,2.13-14.86,9.9-16.72,18-4.33,36.02-8.58,54.07-12.74,9.5-2.19,19.06-4.12,28.59-6.17Zm-96.83,72.48c6.21,.99,12.42,1.98,18.62,2.97,.7-2.39,1.22-4.14,1.8-6.12-1.07-.33-1.92-.71-2.81-.85-7.49-1.18-15.01-2.19-22.48-3.48-14.64-2.53-29.24-5.25-43.88-7.79-15.78-2.74-31.57-5.43-47.37-8-13.86-2.25-27.76-4.26-41.63-6.47-17.05-2.72-34.04-5.8-51.13-8.24-14.93-2.13-29.95-3.68-44.95-5.25-2.02-.21-4.18,.91-6.27,1.41l-1.67,.85c-.61,.58-1.23,1.15-2,1.88,5,.86,9.57,1.64,14.13,2.43-1.11,.62-2.11,.55-3.11,.41-3.29-.47-6.57-1.07-9.88-1.39-.95-.09-1.98,.58-2.98,.89l.27,.91c1.28,.17,2.56,.33,3.85,.5l-.05,.54c-1.35,.08-2.7,.16-4.35,.26,17.36,3.37,34.37,6.67,51.37,9.97l-.14,.72c-17.29-3.19-34.59-6.39-52.1-9.62v3.25c5.15,.82,10.1,1.61,15.05,2.41l-.1,.81c-4.98-.64-9.96-1.28-14.94-1.93l-.12,.99c13.82,2.03,27.64,4.06,41.45,6.09l-.11,.81c-13.69-1.88-27.38-3.76-41.07-5.63l-.24,1.68,20.44,2.88-.06,.5c-6.56-.68-13.13-1.35-20.07-2.06,.84,2.74,.87,5.37,3.78,6.37l.07,.81c3.7,1.57,7.27,3.86,11.12,4.57,15.34,2.81,30.82,4.89,46.16,7.69,23.53,4.29,47,8.94,70.49,13.47,20.83,4.02,41.6,8.45,62.51,12,20.09,3.41,40.32,6.03,60.51,8.77,3.51,.48,7.38,1.1,10.1-1.03-8.62-1.12-17.53-2.27-26.44-3.43l.09-.95c8.38,.41,16.7,3.08,25.14,1.72,.02-.28,.03-.56,.05-.84-12.78-1.21-25.56-2.42-38.34-3.63l.1-1.05c5.45,.51,10.9,1.11,16.36,1.49,6.34,.44,12.7,.69,19.05,1.01,1.73,.09,2.98-.27,1.98-2.94h-16.33l.02-.84c4.79,0,9.57,0,14.36,0,1.71,0,3.16-.25,2.67-2.24-8.98-.97-17.71-1.92-26.44-2.87l.11-1.16c3.02,.31,6.03,.69,9.06,.9,5.2,.36,10.41,.65,15.62,.82,.61,.02,1.25-.95,1.87-1.46-.62-.38-1.19-.93-1.86-1.09-.79-.19-1.66,0-2.49-.07-7.64-.64-15.27-1.3-22.9-1.95l.06-.82c9.23,.57,18.46,1.86,27.7,1.21l.07-1.22c-8.35-1.09-16.69-2.18-25.04-3.26l-.02-.33c.95-.07,1.9-.14,3.66-.28-7.67-1.09-14.52-2.07-21.36-3.05,.72-.51,1.44-.7,2.12-.61,7.41,.96,14.83,1.9,22.23,2.97,5.35,.77,10.66,1.74,16,2.57,2.01,.31,3.6,.02,2.96-2.63-16.7-2.4-33.31-4.78-49.92-7.16l.11-.79c10.61,1.38,21.22,2.76,31.44,4.09l-.3-.57,.43-.51Zm-1.88-152.14c-14.38-.79-28.76-1.53-43.13-2.38-9.47-.56-18.94-1.27-28.4-1.96-10.29-.75-20.58-1.57-30.87-2.31-7.49-.54-14.99-.97-22.48-1.49-10.4-.73-20.79-1.52-31.19-2.25-10.61-.75-21.22-1.51-31.83-2.17-13.12-.81-26.24-1.5-39.35-2.3-3.62-.22-6.24,1.41-8.22,4.2-4.34,6.12-4.75,12.95-3.42,20.05,.52,2.8,1.73,5.2,4.89,7.23-2.38-5.36-3.79-10.19-2.94-15.61,.84,4,1.3,7.84,2.49,11.45,1.76,5.35,4.39,6.52,9.94,5.3-.58-4.81-1.15-9.61-1.73-14.41,1.44,4.4,2.15,8.89,3.1,13.33,.18,.84,1.3,1.47,2.36,2.6-1-6.78-1.85-12.57-2.7-18.35,1.52,5.13,2.47,10.34,3.61,15.51,.52,2.36,.69,2.32,2.82,2.22-.48-5.28-.97-10.56-1.45-15.84l.53-.04c.77,5.44,1.55,10.88,2.32,16.32l.58-.1c-.33-5.44-.67-10.87-1-16.31,1.13,4.8,1.7,9.63,2.31,14.45,.07,.59,.25,1.55,.58,1.65,2.41,.69,4.85,1.44,7.33,1.72,11.6,1.32,23.21,2.5,34.82,3.73,4.72,.5,9.43,.99,13.83,1.45-.46-5.62-.9-10.86-1.33-16.1,1.3,4.44,1.87,8.94,2.46,13.44,.28,2.14,1.36,3.03,3.69,3.29,12.42,1.39,24.81,3.07,37.22,4.57,13.55,1.64,27.11,3.15,40.66,4.78,14.69,1.76,29.36,3.59,44.05,5.36,11.31,1.37,22.57,4.18,34.08,1.22-.54-.25-1.11-.5-1.67-.76l.15-.56c1.95,.35,3.89,.7,5.84,1.05-2.75-.64-.29-1.5,.06-2.26-2.76,.35-5.35,.61-7.91,1.01-8.53,1.35-12.38-.52-15.13-8.78-1.48-4.45-1.91-9.34-2.17-14.06-.54-9.68,6.72-18.37,17.22-17.9Zm33.94-65.9c-.04-.29-.08-.58-.12-.87-13.68,0-27.36,.07-41.03-.01-31.96-.21-63.92-.57-95.88-.73-30.81-.16-61.61-.15-92.42-.19-5.58,0-6.8,.85-8.09,5.72-1.79,6.76-.58,13.24,2.24,19.46,.36,.8,1.69,1.58,2.61,1.63,13.65,.73,27.31,1.39,40.97,1.96,13.14,.55,26.29,.92,39.44,1.49,26.07,1.12,52.14,2.33,78.21,3.49,18.35,.82,36.71,1.64,55.06,2.42,2.65,.11,5.3,.02,8.07,.02-6.13-14.48-3.19-27.98,1.35-31.87-.54,1.58-.99,2.8-1.39,4.05-.4,1.27-.75,2.56-1.13,3.84,2.12-5.77,4.86-10.59,12.12-10.4Zm76.85-35.64l-.16-1.29c-1.06,0-2.13-.12-3.17,.02-5.16,.69-10.29,1.71-15.47,2.12-10.91,.86-21.84,1.6-32.78,2.05-26.27,1.09-52.55,2.22-78.84,2.9-23.27,.6-46.57,.45-69.84,.91-32.97,.65-65.94,1.56-98.9,2.32-5.45,.13-5.88,.12-6.81,5.46-.52,2.99-.45,6.28,.21,9.24,1.24,5.56,3.05,6.43,8.72,5.33-1.62-8.74-1.52-12.07,.54-15.21-.18,2.32-.5,4.47-.46,6.63,.04,2.17,.26,4.38,.79,6.48,.24,.95,1.33,2.27,2.16,2.37,2.52,.31,5.1,.11,7.73,.11-2.23-10.32-2.04-14.45,1.22-18.92-2.05,6.01-1.86,11.34-.11,16.57,.3,.9,1.28,2.16,2.02,2.22,3.09,.25,6.21,.11,9.33,.11-.3-3.77-.57-7.2-.84-10.63l1.05-.09c.15,2.32,.29,4.65,.46,6.97,.18,2.4,.83,3.83,3.91,3.8,16.18-.15,32.37-.02,48.55,0,1.02,0,2.03,0,3.21,0-1.85-7.53-1.24-14.4,2.68-20.78,.03,.71-.24,1.34-.47,1.99-1.87,5.19-2.67,10.44-1.59,15.96,.43,2.18,1.26,3.11,3.47,2.89,1.32-.13,2.66-.02,4.02-.02-.89-10.77-.53-14.63,.85-16.53,0,3.62-.05,8.26,.02,12.91,.04,2.71,1.28,3.84,4.28,3.84,20.78,0,41.55,.22,62.33,.35,.98,0,1.96-.11,2.95-.16-.86-7.6-1.16-14.75,1.95-21.56-1.5,6.23-2.1,12.51-.7,18.83,.24,1.08,1.32,2.8,2.05,2.82,7.28,.21,14.57,.13,22.11,.13-.96-6.24-1.46-12.61,.6-18.34,0,3.36-.19,7.16,.04,10.94,.47,7.87,.56,7.81,8.3,7.93,16.6,.27,33.17,.09,49.69-1.91,14.89-1.8,29.8-3.41,44.7-5.15,2.6-.3,5.17-.82,7.75-1.24,0-.42,0-.84,0-1.25-1.09-.12-2.2-.39-3.28-.32-1.97,.14-3.92,.55-5.89,.75-14.22,1.4-28.45,2.66-42.66,4.18-8.39,.89-16.74,2.15-25.11,3.28-1.9,.26-3-.18-3.69-2.24-2.01-5.98-1.54-11.67,1.35-17.22,1.13-2.18,2.78-3.59,5.38-3.64,3.96-.07,7.93-.37,11.89-.28,19.58,.45,38.93-1.82,58.26-4.56,2.07-.29,4.12-.73,6.18-1.1Zm-141.77-109.69c-12.6,1.63-24.38,3.02-36.12,4.7-16.17,2.32-32.3,4.94-48.47,7.26-13.19,1.89-26.43,3.47-39.63,5.29-6.8,.94-13.66,1.71-20.34,3.24-12.8,2.95-14,15.8-10.99,23.55,.53,1.36,2.1,3.06,3.38,3.23,2.83,.38,5.78-.03,8.66-.33,.58-.06,1.08-1.04,1.61-1.59-.64-.39-1.24-.97-1.94-1.14-2.15-.52-4.34-.89-6.51-1.32,4.69,.07,9.99-.99,12.55,5.43l-2.59-1.88,.04,.83-11.13,2.45c6.83,1.64,13.6,.64,20.61-.08-2.36-9.77-3.29-19.21-.55-28.66-.03,4.12-.55,8.26-.38,12.37,.18,4.25,.94,8.48,1.64,12.7,.66,3.96,1.46,4.28,5.14,2.51-4.24-15.42-3.8-24.67,1.7-29.68-.23,.99-.32,1.68-.55,2.31-3.1,8.26-2.44,16.6-.32,24.91,.27,1.04,1.58,2.65,2.32,2.6,5.17-.33,10.32-1.03,15.81-1.64-4-9.81-5.12-19.54-2.13-29.48,.3,.38,.34,.77,.3,1.16-1.05,8.8-.44,17.45,2.16,25.96,.73,2.39,1.96,2.87,3.86,1.86-.79-5.11-1.55-10.01-2.3-14.91l.74-.11c.54,2.85,.9,5.74,1.65,8.54,2.04,7.58,.86,6.69,8,5.79,.83-.1,1.67-.05,2.5-.13,4.51-.46,9.01-.95,13.54-1.43-1.96-9.34-3.81-18.37-1.28-27.9,.3,6.16,.07,12.04,.98,17.74,1.9,11.9,.27,10.2,10.73,9.09,.37-.04,.73-.19,.37-.09-.64-6.33-1.24-12.36-1.85-18.39,1.42,4.97,2.3,9.97,3.24,14.95,.42,2.23,1.51,3.32,4.11,3.01,10.23-1.2,20.49-2.19,31.09-3.3-4.04-9.58-4.44-19.44-4.21-29.54-3.6,.38-6.83,.71-10.94,1.14,4.14-2.44,8.67-.93,11.17-3.73,5.02,1.68,10-.96,14.89,.38-4.67,.69-9.33,1.38-14.21,2.1,.19,9.48,.54,18.62,3.8,27.36,.29,.78,1.37,1.84,2.04,1.82,4.32-.17,8.63-.6,13.19-.97-4.34-11.09-5.39-21.96-1.99-33.03,.24,.49,.16,.98,.12,1.48-.71,9.71-1.02,19.36,2.52,28.72,.72,1.9,1.61,2.72,3.62,2.43,2.36-.34,4.74-.55,7.28-.84-.98-2.68-2.15-5.24-2.84-7.92-2.59-10.12-3.44-19.98,5.9-28.83Zm-19.44,79.4c-1.18,0-2-.04-2.81,0-15.61,.98-31.21,2.01-46.82,2.95-11.97,.73-23.94,1.32-35.91,2.04-15.92,.96-31.84,1.97-47.76,3-8.53,.55-17.05,1.16-25.57,1.85-.88,.07-2.16,.6-2.48,1.27-2.8,5.94-2.8,14.49,1.79,19.43,.91,.98,2.63,1.67,3.98,1.68,3.53,.02,7.07-.51,10.61-.64,27.73-1.08,55.46-2.15,83.2-3.15,19.81-.72,39.63-1.32,59.44-2,1.4-.05,2.78-.36,4.48-.6-5.3-8.4-6.08-16.85-2.13-25.83Zm150.47-65.91l.22-1.43c-2.67-.48-5.32-1.03-8-1.41-15.35-2.23-30.68-4.62-46.07-6.55-10.75-1.35-21.56-2.29-32.38-2.97-11.87-.75-23.76-1.04-35.65-1.41-4.87-.15-8.38,2.39-11.36,6.44l4.57,.49c-6.58,1.59-6.87,2.07-7.26,7.89-.44,6.59,.83,12.8,3.21,18.93,1.02,2.62,2.41,3.08,4.93,2.82,5.59-.59,11.21-1.25,16.82-1.23,16.29,.05,32.57,.44,48.85,.66,16.39,.22,32.78,.36,49.17,.62,5.11,.08,10.21,.45,15.32,.57,.6,.01,1.23-.73,1.84-1.12-.55-.34-1.09-.93-1.66-.98-5.72-.47-11.44-1.06-17.16-1.22-19.83-.56-39.66-.96-59.49-1.41-9.29-.21-18.58-.33-27.87-.65-4.4-.15-8.78-.69-13.17-1.06l.08-1.23c29.71,.48,59.43,.96,90.02,1.45-9.84-.83-18.81-1.59-27.77-2.35l.07-.81c16.49,1.48,32.98,2.96,49.34,4.42-.48-3.54-.92-6.79-1.39-10.3-14.48-.98-28.94-1.95-43.4-2.93l.03-.6,26.72,1.29,.03-.49c-10.19-.7-20.39-1.4-31.41-2.16,1.12-.26,1.42-.41,1.71-.39,15.06,1.13,30.13,2.24,45.18,3.45,1.58,.13,2.92,.53,3.04-2.06-29.97-2.69-59.91-5.37-89.42-8.01,3.7,0,7.85-.23,11.97,.04,12.28,.81,24.54,1.79,36.81,2.77,8.94,.71,17.87,1.48,26.8,2.29,4.15,.38,8.28,.97,12.43,1.34,1.03,.09,2.11-.3,3.16-.46l-.25-.48c-14.93-1.77-29.87-3.54-44.8-5.31l-.09,.54,2.19-.45c-3.99-.44-7.95-.25-11.88-.52-2.18-.15-4.29-1.4-6.47-1.58-14.65-1.22-29.31-2.27-43.97-3.39-2.97-.23-5.93-.47-8.89-.71,7.55-.51,15.07-.9,22.53-.43,14.24,.9,28.48,2.08,42.67,3.56,12.2,1.28,24.33,3.14,36.49,4.74,4.54,.6,9.07,1.2,13.61,1.8Zm-107.45,227.51v.37c7.21-.59,14.43-1.18,21.64-1.77l.07,.62c-7.5,.91-15.01,1.82-22.51,2.72l.04,.5h16.62v.25c-4.69,.49-9.38,.97-14.08,1.46,7.86,.42,15.68,.93,23.4,.31,13.49-1.08,26.94-2.69,40.38-4.38,14.57-1.83,29.09-4.1,43.85-3.64,1.98,.06,3.97-.36,6.23-.58-8.16-9.35-7.93-19.24-3.52-29.91-4.7,.36-9.05,.65-13.4,1.03-10.48,.93-20.95,1.91-31.43,2.86-10.89,.99-21.81,1.8-32.67,3.01-8.81,.98-17.56,2.44-26.34,3.64-.78,.11-1.6-.07-2.39-.12l-.03,.36c1,.22,2,.45,3.39,.76-3.52,1.06-6.59,1.99-9.66,2.92l.16,.72c.65,.22,1.31,.44,1.67,.57-1.2,.85-2.49,1.75-3.77,2.66,.14,.28,.29,.56,.43,.84,4.24-.59,8.47-1.18,12.71-1.76l.1,.58-12.59,2.56,.16,.87,5.79-.26,.02,.39c-2.39,.55-4.79,1.1-7.18,1.66l.14,.84c2.3-.1,4.59-.21,6.89-.31l.03,.36c-1.98,.4-3.96,.8-6.14,1.23,.52,.56,.85,.9,1.16,1.23-.57,.46-1.12,.9-1.98,1.6,1.51,.26,2.49,.43,4.05,.7-1.34,.54-2.14,.87-2.93,1.19l.08,.52h4.64l.03,.39c-1.41,.37-2.82,.73-4.23,1.1l.07,.53,3.52,.65v.36l-2.39,.33ZM303.68,117.64c33.63-6.02,67.03-12.01,100.36-17.98-.64-.86-1.44-1.93-2.26-3.03-8.46,1.57-16.9,3.13-25.34,4.69l-.15-.72c8.2-2.01,16.4-4.01,24.6-6.02-.5-3.06-.97-5.91-1.47-8.99-12.49,2.57-24.85,5.1-37.22,7.64l-.15-.71c12.54-3.11,25.07-6.22,37.24-9.24,2.22-7.6,2.81-15.65,11.55-18.79,.33-.12,.32-1.16,.34-1.27-39.71,11.48-79.22,22.9-118.72,34.32l.31,1.1c28.33-7.65,56.66-15.31,84.99-22.96l.19,.73c-25.45,7.54-50.89,15.08-76.67,22.72,3.49,6.25,3.36,12.11,2.41,18.51Zm142.76,76.44v-.24h94.36c-5.48-.34-10.68-.71-15.89-.96-22.29-1.1-44.58-2.28-66.88-3.2-12.2-.5-24.42-.52-36.63-.82-2.13-.05-4.24-.43-6.37-.65l.06-.38c43.11,1.34,86.21,2.69,129.32,4.03l.03-1.15h-5.84v-.34l5.49-.29c-17.37-3.03-34.89-1.16-52.3-2.53h24.42v-.48c-22.23-.59-44.46-1.17-66.7-1.76l.02-.44h41.51c-4.49-.31-8.98-.31-13.47-.31-19.1,.02-38.21-.02-57.31,.09-5.89,.04-10.11,4.33-10.49,10.29l3.18,.47c-3.5-.29-3.95,1.49-3.59,4.48,.63,5.32,3.16,9.04,8.3,10.6,2.56,.78,5.32,1.43,7.95,1.33,19.71-.75,39.41-1.66,59.1-2.61,6.1-.3,12.19-.88,18.28-1.34v-.61h-48.29v-.96h92.07v-.73h-48.92l-.02-.21,5.41-.31-.02-.87h-56.49c0-.27,0-.54,0-.81h77.47v-.31c-25.42-.83-50.84-1.66-76.25-2.49v-.53c27.91,.69,55.81,1.39,83.71,2.08l.02-.81c-5.02-.22-10.03-.45-15.05-.67v-.53h27.39v-.21c-11.02-.34-22.04-.68-33.05-1.02v-.87h33.41v-.52c-25.34-.46-50.66-.92-75.98-1.39v-.81c23.66,.4,47.3,.81,70.94,1.21v-.56c-30.97-.63-61.95-1.26-92.93-1.89Zm108.68-41.21c-37.96-1.44-75.43-2.85-112.9-4.27v.32c36.52,1.71,73.04,3.43,109.57,5.14v.8c-4.83,0-9.69,.22-14.53-.04-20.72-1.1-41.43-2.33-62.14-3.52-5.21-.3-10.41-.77-15.62-.88-6.98-.15-13.97-.04-20.96-.04l-.05-.16c1.37,.2,2.74,.4,4.11,.6l-.02,.33c-1.51,.12-3.02,.24-4.53,.36l.02,.42c2.85,.27,5.71,.53,8.56,.8-1.38,.47-2.73,.47-4.08,.46-1.36,0-2.74-.2-4.06,0-.97,.15-1.86,.83-2.79,1.27l.36,.86c3.16,.35,6.32,.71,9.48,1.06l-.03,.44h-9.65c.13,3.37,3.32,.81,4.34,2.45-1.37,.18-2.69,.34-4,.51l.05,.54c2.32,.4,4.64,.81,6.96,1.21l-.03,.31c-2.23-.11-4.45-.23-6.71-.34,.75,4.78,2.08,6.26,5.88,6.49,14.26,.85,28.52,2.03,42.79,2.38,22.02,.54,44.05,.51,66.08,.71,1,0,2-.11,3.42-.2-2.45-6.32-1.58-12.2,.5-18.06Zm20.04,136.16c-38.96,1.68-77.57,2.42-115.95,5.86-.81,4.79,.2,8.56,3.1,11.58,.98,1.03,2.81,1.86,4.2,1.79,13.33-.66,26.64-1.54,39.96-2.35,7.5-.46,15-.82,22.48-1.39,14.54-1.11,29.08-2.34,43.62-3.53,1.72-.14,2.87,.25,2.64,2.5-1.15,.38-2.29,.76-3.43,1.14l.09,.38c2.67-.14,5.35-.29,8.02-.43-6.47-3.61-4.92-9.43-4.74-15.54Zm-79.13,99.19l.21,.6c-3.13,.69-6.32,1.18-9.36,2.13-2.55,.8-4.94,2.14-7.39,3.24,.1,.25,.21,.49,.31,.74,3.59-1.08,7.17-2.15,10.76-3.23l.22,.81c-2.16,.7-4.35,1.32-6.47,2.12-1.97,.74-3.87,1.68-5.8,2.53l.33,.75c3.71-1.03,7.43-2.06,11.14-3.08l.17,.58c-3.91,1.43-7.83,2.85-11.74,4.28l.34,.79c29.47-6.19,58.95-12.38,88.42-18.56l-.27-1.35c-6.73,1.36-13.46,2.73-20.19,4.09l-.16-.87c6.63-1.46,13.26-2.93,20.12-4.44-.99-5.21,.43-9.77,3.45-13.95l-.51-.67c-16.01,2.98-32.02,5.97-48.03,8.95l.12,.68c7.57-1.06,15.15-2.12,22.72-3.18l.16,.81c-18.71,1.73-36.15,8.37-54.13,12.93l.23,1.29c9.3-1.5,18.6-3.01,27.9-4.51l.06,.44c-12.03,2.55-24.06,5.1-36.1,7.65l.15,.75,13.34-2.31Zm-133.02-32.38c-1.2-.21-2.51-.49-3.84-.66-10.93-1.38-21.86-2.75-32.8-4.1-7.74-.96-15.49-1.86-23.22-2.83-1.84-.23-2.93,.37-3.4,2.24-.91,3.62-1.93,7.22-2.9,10.82-.54,2.02,.15,3.18,2.29,3.45,3.3,.42,6.6,.89,9.89,1.33,10.62,1.4,21.24,2.78,31.86,4.19,5.75,.76,11.49,1.57,17.09,2.34,1.7-5.68,3.3-11.02,5.03-16.79Zm191.52-136.67c-.1,0-.61,.02-1.11,.08-10.71,1.43-21.38,3.33-32.13,4.17-10.28,.8-20.64,.52-30.96,.7-2.48,.04-4.83,.26-6.18,2.78-2.28,4.24-2.61,8.75-1.47,13.33,.18,.73,1.55,1.74,2.27,1.66,6.51-.74,12.97-1.8,19.48-2.55,12.92-1.49,25.85-2.86,38.79-4.22,3.69-.39,7.4-.56,10.32-.77,.35-5.18,.67-10.05,1.01-15.17ZM221.43,418.66c.72,.07,1.46,.11,2.17,.22,16.95,2.64,33.91,5.3,50.86,7.94,15.92,2.48,31.84,4.98,47.77,7.43,14.08,2.17,28.17,4.26,42.24,6.45,13.77,2.14,27.54,4.28,41.29,6.58,12.4,2.08,24.75,4.47,37.15,6.57,9.33,1.58,18.74,2.67,28.02,4.48,3.96,.77,7.44,1.04,10.89-1.31,1-.68,2.3-.94,3.49-1.3,23.24-6.92,46.48-13.82,69.72-20.72,4.43-1.31,8.87-2.57,13.31-3.85-.03-.33-.07-.65-.1-.98-1.21,0-2.48-.26-3.61,.04-26.24,7.03-52.44,14.24-78.72,21.11-6.18,1.62-12.75,3.28-18.99,2.85-12.22-.84-24.38-2.94-36.5-4.88-16.12-2.59-32.17-5.63-48.28-8.3-17.55-2.91-35.14-5.58-52.71-8.4-16.33-2.62-32.65-5.3-48.98-7.95-12.94-2.1-26-3.67-38.78-6.52-7.03-1.57-13.53-.77-20.23,.54Zm-14.82,41.26c1.91,.79,3.37,1.69,4.95,1.99,13.48,2.58,26.95,5.19,40.47,7.53,16.91,2.93,33.89,5.47,50.79,8.44,21.31,3.74,42.55,7.84,63.86,11.6,26.34,4.64,52.71,9.09,79.07,13.64,6.16,1.06,12.35,1.98,18.45,3.32,7.76,1.69,14.74-.84,21.97-3.04,42.32-12.87,84.7-25.55,127.07-38.23,2.25-.67,3.58-1.47,2.25-4.23-4,1.29-7.91,2.69-11.9,3.81-30.54,8.6-61.08,17.22-91.67,25.66-10.51,2.9-21.15,5.32-31.73,7.96-1.39,.35-3.17,.27-4.11,1.12-3.08,2.76-6.59,3.3-10.47,2.98-1.57-.13-3.15-.02-4.73-.02,1.44,.3,2.88,.61,4.33,.63,4.28,.07,9.16,2.06,11.79-3.53,.13-.29,1.1-.54,1.29-.37,.39,.36,.7,.99,.72,1.53,.1,2.83-2.71,5.57-6.11,5.39-5.19-.27-10.4-.68-15.51-1.58-16.1-2.85-32.13-6.07-48.23-8.94-17.63-3.15-35.33-5.95-52.96-9.16-20.9-3.81-41.73-8.07-62.64-11.82-21.74-3.89-43.55-7.41-65.32-11.07-7.04-1.19-14.09-2.34-21.62-3.58Zm107.59-85.14c-6.78,1.97-11.15-.8-13.75-5.51-1.55-.25-2.57-.42-3.85-.63,.78,3.39,1.52,6.93,2.42,10.42,.97,3.77,3.44,5.42,7.39,5.85,8.47,.91,16.9,2.25,25.34,3.45,10.16,1.44,20.32,2.92,29.89,4.3-1.11-5.21-2.21-10.44-3.35-15.68-.11-.48-.31-1.05-.66-1.35-1.9-1.62-8.01-.83-9.41,1.12l-2.08-1.81c-.48,.91-.82,1.55-.96,1.8-1.79-.84-3.36-1.58-4.92-2.31l-.39,.76c.8,.6,1.59,1.2,2.39,1.79l-.65,.91c-1.27-.95-2.54-1.9-3.48-2.6-1.55,.72-3.07,1.43-4.59,2.13l-.64-.84c.51-.9,1.02-1.81,1.46-2.58h-2.75c-.3,.75-.59,1.5-1.23,3.13-.56-1.94-1.43-3.41-1.04-3.91,.61-.79,2.06-.92,2.54-1.09-3.49-.43-7.69-.99-11.9-1.44-4.04-.44-5.4,.65-5.77,4.09ZM571.07,87.17c-52.37-7.02-104.56-13.78-156.31-23.93,.87,6.75,1.29,7.33,7.78,8.24,12.79,1.77,25.61,3.29,38.39,5.08,18.14,2.53,36.24,5.3,54.38,7.79,17.09,2.34,33.95,6.65,51.4,6.15,2.44-.07,4.08-.41,4.35-3.31ZM239.35,354.84l-.49,1.37c1.06,.35,2.1,.89,3.19,1.03,9.49,1.26,18.99,2.44,28.48,3.65,5.16,.66,10.32,1.44,15.49,1.95,1.08,.11,3-.47,3.26-1.19,1.66-4.56,2.96-9.26,4.46-14.17-.75-.14-1.73-.39-2.73-.5-4.14-.48-8.28-1-12.43-1.32-1.21-.09-2.48,.43-3.9,.71-.38-.18-1.14-.72-1.97-.88-2.23-.41-4.48-.67-6.73-.96-6.79-.89-13.58-1.81-20.38-2.59-.73-.08-1.98,.48-2.28,1.09-1.51,3.09-2.79,6.29-4.16,9.45,.36,.26,.72,.51,1.08,.77,1.39-1.01,2.78-2.02,4.28-3.11-1.72,3.07-1.28,5.46,2.83,6.38l-.65,.77c-2.45-.82-4.91-1.64-7.36-2.47ZM568.38,107.9c-2.7,.61-4.83,1.61-6.89,1.48-11.97-.74-23.94-1.49-35.86-2.73-17.31-1.81-34.63-3.63-51.83-6.2-19.9-2.97-39.93-2.68-59.92-3.44-6.16-.23-9.4-3.14-9.73-9.39-.09-1.67-.27-3.4,.07-5,1.22-5.66,1.54-12.01,9.07-13.55-2.48-1.89-4.93-1.18-7.1,2.11-4.46,6.76-4.75,14.14-2.59,21.64,1.78,6.21,5.44,7.55,11.24,4.38,.29,.78,.82,1.53,.81,2.27-.02,2.58,1.38,2.95,3.62,3.02,15.74,.49,31.48,1.11,47.22,1.72,1.72,.07,3.44,.34,5.13,.52l.52-3.02h.36c.17,.96,.35,1.93,.53,2.96,2.67-.12,5.2-.56,7.64-.26,3.84,.47,7.58,1.72,11.42,2.16,11.38,1.3,22.8,2.28,34.19,3.54,11.08,1.22,22.13,2.7,33.21,3.88,3.24,.34,6.54,.05,10.16,.05-.54-2.62-.97-4.7-1.27-6.15ZM279.31,366.63c-2.63,0-4.71-.59-6.15,.12-3.03,1.5-2.85,1.75-4.28-1.31-.38-.81-1.21-1.84-1.97-1.97-3.99-.66-8.03-1.07-12.24-1.59,1.31,.6,2.38,1.09,3.45,1.58-1.02,.59-1.94,.31-2.51,.64-1.8,1.03-2.97,.5-4.64-.61-1.68-1.11-4.1-1.65-5.27,.36-1.35-.71-2.56-1.35-4.14-2.19,.15,1.99,.23,3.15,.32,4.31-1.09-.75-1.42-1.67-1.84-2.56-.38-.8-.87-1.56-1.32-2.33l-.87,.3c.16,.94,.12,1.98,.52,2.81,.51,1.07,.7,1.68,.27,3.11-1.15,3.81,4,9.66,8.04,10.04,4.35,.41,8.68,1.03,13.02,1.56,10.71,1.31,21.42,2.61,31.91,3.89-1.21-5.7-2.35-11.12-3.49-16.5-2.65,1.72-5.44,2.42-8.08-.54-.46,.55-.86,1.01-.74,.87Zm337.74,58.98c.22-3.38-.12-4.06-3.46-3.48-6.43,1.11-12.88,2.38-19.16,4.16-23.09,6.55-46.11,13.36-69.18,20.01-13.59,3.92-27.2,7.76-40.83,11.57-3.35,.93-5.1,2.83-4.82,6.25,45.22-14.63,90.92-27.45,137.44-38.5ZM242.42,192.55l.38,1.23c11.64-.68,23.28-1.33,34.91-2.03,16.65-1,33.3-2.03,49.95-3.03,8.02-.48,16.04-.9,24.05-1.41,15.4-.97,30.79-2.12,46.2-2.87,3.73-.18,6.31-1.34,8.39-4.82-5.03,.27-9.77,.46-14.5,.79-14.04,.97-28.07,2.02-42.11,2.97-10.72,.72-21.45,1.27-32.16,2-14.04,.96-28.07,2.04-42.11,3.06-8.74,.63-17.48,1.13-26.2,1.96-2.31,.22-4.53,1.42-6.8,2.17Zm-23.47,230.21l.17-.67c43.04,6.79,86.08,13.53,129.11,20.38,43.05,6.85,86.08,13.81,129.11,20.72-3.65-1.35-7.36-2.69-11.19-3.4-18.83-3.49-37.67-6.97-56.55-10.15-14.68-2.47-29.44-4.51-44.17-6.71-15.45-2.31-30.91-4.5-46.34-6.87-11.93-1.84-23.82-3.99-35.75-5.82-12.55-1.93-25.15-3.59-37.71-5.49-8.43-1.28-16.82-2.81-25.25-4.15-7.46-1.19-14.24,1.99-17.65,8.55,5.5-5.76,11.9-7.47,19.11-6.62-.96,.08-1.92,.16-2.89,.24Zm152.18-65.6c-2.51,4.69-3.68,9.81-4.18,15.09-.06,.6,.61,1.78,1.07,1.85,4.93,.73,9.95,2.07,14.82,1.67,4.23-.35,8.24,.17,12.34,.47,.48,.03,.91,.71,1.36,1.1l-.41,.58c1.53,.1,3.07,.21,4.18,.29,1.52-5.89,2.98-11.56,4.48-17.41-4.39-.1-8.84-1.95-13.65-.72-5.92-3.18-13.17-1.17-20.02-2.92Zm38.92-139.71c-5.06-4.88-5.05-4.8-10.81-4.54-18.96,.83-37.93,1.67-56.9,2.38-25.65,.95-51.3,1.76-76.94,2.69-6.18,.22-12.36,.68-18.53,1.04,.8,.85,1.67,1.34,2.52,1.33,53.39-.93,106.79-1.91,160.66-2.89Zm-43,159.68c.19,1.35,.12,2.8,.62,4.01,1.77,4.32,3.11,9.04,5.89,12.61,1.4,1.79,5.55,1.53,8.48,2.01,8.61,1.4,17.23,2.71,26.16,4.11-4.52-4.87-6.07-10.76-7.17-16.86-.16-.87-1.07-1.6-1.63-2.4,2.32,1.72,0,3.4-.1,4.9-.27,.14-.55,.29-.82,.43-1.14-1.43-2.28-2.86-3.94-4.95-.19,1.95-.33,3.31-.45,4.54-.93-.34-1.88-.69-2.77-1.02,.25-.8,.51-1.65,.77-2.5q-4.71-1.5-4.04,3.88c-.78-1.01-1.21-2.18-1.73-3.3-.34-.73-.89-2.01-1.25-1.97-2.99,.29-5.83-3.58-8.93-.34-.23,.24-1.42,.07-1.59-.24-1.74-3.05-4.7-2.74-7.5-2.91Zm42.89-166c3.45,3.4,7.3,5.95,12.32,5.94,7.19,0,14.39,.07,21.58-.17,14.9-.49,29.81-.97,44.69-1.82,23.21-1.32,46.4-2.93,69.59-4.45,1.11-.07,2.2-.5,3.29-.77-.02-.32-.04-.65-.06-.97-1.03-.16-2.07-.49-3.1-.46-4.48,.15-8.95,.45-13.43,.63-12.3,.48-24.6,.84-36.9,1.41-19.79,.93-39.57,1.98-59.35,3.01-5.41,.28-10.82,.68-16.24,.97-7.69,.42-15.42,1.1-22.4-3.33Zm149.42-28.75l.29-1.46c-1.04-.45-2.07-1.26-3.12-1.31-10.43-.45-20.86-1.04-31.29-1.09-33.19-.17-66.38-.14-99.57-.14-2.91,0-5.85,.22-8.72,.67-6.82,1.08-11,5.33-12.68,11.83-1.67,6.48-.59,12.55,3.03,17.09-.53-3.28-1.99-7.37-1.69-11.33,.86-11.15,6.34-15.98,16.06-16.1,5.11-.07,10.23-.38,15.34-.33,31.62,.32,63.24,.68,94.86,1.13,5.52,.08,11.02,.76,16.54,1,3.64,.16,7.3,.03,10.95,.03Zm-83.59,342.53v.51c3.88-.6,7.83-.95,11.63-1.87,6.37-1.56,12.7-3.32,18.96-5.29,17.58-5.54,35.11-11.22,52.65-16.89,.44-.14,.73-.78,1.09-1.19l-.5-.44c-14.83,4.49-29.66,8.97-44.49,13.46l-.13-.35c7.03-3.13,14.06-6.25,21.08-9.38-3.58-.15-7.2-.39-10.26,.81-9.98,3.92-20.59,6.07-30.16,11.19-4.94,2.64-10.45,4.21-15.71,6.27l.11,.33,3.35-.78,.16,.57c-2.59,1.02-5.19,2.03-7.78,3.05ZM317.64,117.2c31.62-4.88,63.23-9.77,94.85-14.65l-.14-.9c-32.25,.86-63.23,9.82-94.71,15.55Zm-80.99,223.63c-1.87-.17-3.62-.42-5.38-.47-1.31-.03-2.93-.26-3.88,.39-4.09,2.76-6.75,6.7-8.21,11.41-.6,1.92,.21,3.05,2.22,3.09,3.2,.06,6.4,.02,9.43,.02,1.91-4.73,3.83-9.51,5.82-14.43Zm212.87-29.93l-1.11,.23c-.71-3.38-1.71-6.73-2.06-10.15-.36-3.57-.08-7.19-.08-10.8-1.06,.36-1.83,1.13-1.97,2.01-1.04,6.23,.16,12.23,2.21,18.08,.27,.76,1.47,1.62,2.29,1.68,2.84,.21,5.7,.08,8.86,.08-5.7-6.64-5-13.89-3.37-21.23-1.85-.6-3-.25-3.04,1.81-.05,2.59-.39,5.23-.04,7.77,.49,3.58,1.49,7.09,2.28,10.63-3.98-6.34-3.97-13.28-3.53-20.72-.93,.29-2.12,.8-2.2,1.44-.3,2.67-.57,5.4-.28,8.05,.41,3.73,1.33,7.41,2.03,11.11Zm42.48,200.91l.41,.94c21.28-3.94,40.93-13.5,61.98-18.41-1.13-.37-2.21-.43-3.23-.2-2.89,.65-5.77,1.38-8.63,2.16-14.42,3.98-28.85,7.93-43.23,12.06-2.55,.73-4.87,2.28-7.29,3.45Zm68.84-362.47l-.02-1.5-97.86-3.41c32.63,1.69,65.2,4.85,97.88,4.91ZM233.23,375.16c-1.02-5.3-2.05-10.64-3.11-16.12-3.98-.48-2.66,3.29-3.7,4.67-1.64,.38-3,.69-4.66,1.07l.36-4.15c-.99-.14-1.95-.28-3.61-.52,1.23,1.9,2.08,3.2,3.05,4.7-1.06,.27-1.84,.47-2.69,.69,2.38,7.2,7.84,9.37,14.35,9.66Zm325.13-200.49c-32.27-.04-64.11-1.01-95.96-1.09,15.54,.61,31.09,1,46.64,1.45,7.62,.22,15.23,.61,22.85,.8,7.41,.18,14.82,.29,22.22,.24,1.42,0,2.84-.91,4.26-1.4Zm-152.48,133.85l.44-.09c-.42-6.89-.85-13.77-1.27-20.66-4.86-.66-5.31-.48-4.98,4.16,.32,4.54,1.15,9.05,1.96,13.54,.22,1.24,1.19,2.35,1.81,3.52l.96-.43c-.57-2.16-1.25-4.29-1.67-6.48-.42-2.24-.67-4.52-.81-6.8-.13-2.13-.03-4.27-.03-6.4l.23,.17c1.12,6.49,2.24,12.97,3.37,19.46Zm5.2,53.53l-.64-.92c-.89,.53-2.21,.84-2.61,1.62-3.77,7.49-5.08,15.36-2.91,23.58,.24,.91,1.43,1.57,2.19,2.34,.35-.18,.69-.36,1.04-.54-2.65-9.15-1-17.76,2.94-26.09Zm110.69-74.97c19.75-.72,39.51-1.44,59.26-2.17l-.04-.99c-19.85-1.52-39.48,2.18-59.22,3.16Zm-153.5,69.07c-.83,.45-1.86,.65-2.14,1.22-3.39,6.8-5.6,13.91-4.48,21.61,.21,1.47,1.41,2.8,2.15,4.2l.8-.47c0-4.44-.46-8.95,.13-13.32,.59-4.34,2.24-8.53,3.55-13.25Zm202-79.3c-.04-.29-.07-.57-.11-.86-18.76,.48-36.94,5.69-55.53,7.51,18.55-2.21,37.1-4.43,55.64-6.64Zm-172.73,30.96c-.32-6.53-.67-12.58-.89-18.63-.1-2.8-1.75-2.09-4.13-1.85,.87,5.76,1.58,11.28,2.6,16.73,.25,1.32,1.53,2.44,2.41,3.75Zm-100.15,40.6c-4.88,8.08-7.43,16.55-4.01,25.91,.18-8.81,.36-17.62,4.01-25.91Zm29.9,130l.13-.75-45.75-7.71-.13,.79c15.25,2.56,30.5,5.11,45.76,7.67Zm186.87-126.62l.09,.7c12.82-1.5,25.65-2.99,37.54-4.38-5.53,0-11.95-.21-18.35,.11-2.44,.12-4.78,1.72-7.25,2.15-3.97,.69-8.02,.97-12.03,1.43Zm85.66,71.32c-13.54-1.25-20.29-.1-21.67,3.42,4.42-1.12,8.8-2.23,13.18-3.34l.2,.79c-.6,.47-1.21,.94-1.81,1.41l.22,.36,9.87-2.65Zm-365.77-58.61c1.75-7.45,3.57-15.22,5.32-22.67-3.83,6.99-7.2,14.42-5.32,22.67Zm166.86-56.3c-.7-6.59-1.44-13.6-2.17-20.51-2.87,1.38-1.11,17,2.17,20.51Zm76.53,159.47l-1.23-.11c-2.02,9.19-2.45,18.48-1.42,27.84,.33-4.69,.03-9.42,.42-14.09,.38-4.58,1.46-9.09,2.24-13.63Zm26.23-68.44l.15,.65,37.71-8.86-.14-.61c-12.57,2.94-25.14,5.88-37.72,8.82Zm-293.35,26.4c-8.46,4.41-11.08,22.44-4.02,27.65-5.25-12.15-4.16-19.63,4.02-27.65Zm246.91-134.91c-2.41,.79-2.44,2.96-2.59,4.88-.57,7.27,1.77,13.6,6.29,16.53-5.27-6.7-7.61-13.48-3.7-21.4Zm33.47,233.2c3.08,1.42,13.45-1.03,18.05-3.58-6.28,1.25-12.17,2.41-18.05,3.58Zm-83-222.01v-13.91c-.31,0-.63,0-.94,0-.8,4.64-.82,9.28,.94,13.91Zm118.9,134.32l-.14-.54-28.31,7.51,.15,.56c9.44-2.51,18.87-5.02,28.31-7.53Zm-112.19,58.5v-.5c-10.49-1.71-20.99-3.41-31.49-5.12l-.07,.46c10.52,1.72,21.04,3.44,31.57,5.16Zm63.98,36.19c3.43-1.37,6.57-2.62,10.06-4.01-3.85-1.59-7.38-.11-10.06,4.01Zm28.69-69.03l.23,.76c6.44-1.91,12.89-3.83,19.33-5.74l-.19-.63c-6.46,1.87-12.91,3.74-19.37,5.6Zm-199.48-88.34c1.42-.15,2.87-.18,4.24-.53,.33-.09,.76-1.55,.52-1.81-.65-.71-1.64-1.12-2.49-1.65-.44-.11-.88-.22-1.32-.33,3.12,3.85-1.07,1.93-.95,4.32Zm-86.18,87.21c-4.19-1.45-8.9-3.09-14.25-4.94,4.7,3.86,9.91,3.97,14.25,4.94Zm257-106.82l-.03,.48c4.73-.62,9.46-1.25,14.19-1.87l-.11-.76c-4.68,.72-9.36,1.44-14.04,2.15Zm42.59-5.62l.06,.68c4.71-.6,9.41-1.21,14.12-1.81l-.05-.49c-4.71,.54-9.42,1.08-14.13,1.62Zm-27.54-38.9v.36h12.72v-.36h-12.72Zm-149.62-130.08c-.85-1.76-1.33-2.77-1.63-3.39-.7,.84-1.3,2.17-2.26,2.54-1,.39-2.36-.15-3.56-.28l-.05,.74c2.28,.12,4.57,.24,7.51,.39Zm250.19,258.73l.25,.96c3.22-.58,6.44-1.17,9.65-1.75l-.12-.72c-3.26,.51-6.52,1.01-9.78,1.52Zm-89.16-87.85l-.06,.49,12.72-1.4-.06-.51c-4.2,.47-8.4,.95-12.6,1.42Z"/><path d="M555.84,261.14c-11.35,1.08-22.7,2.16-34.06,3.24l-.09-.9c11.37-1.19,22.73-2.38,34.1-3.56l.04,1.22Z"/><path d="M531.21,266.63c8.36-1.01,16.72-2.02,25.08-3.03,.04,.38,.08,.75,.13,1.13-8.37,.95-16.74,1.9-25.11,2.85-.03-.31-.07-.63-.1-.94Z"/><path d="M546.34,273.49l13.58-1.57,.11,.99c-4.52,.51-9.04,1.02-13.56,1.53l-.12-.95Z"/><path d="M537.9,251.59c4.94-.49,9.88-.97,14.81-1.46l.07,.71c-4.92,.46-9.83,.91-14.75,1.37l-.13-.63Z"/><path d="M213.96,427.57c8.86,.47,17.72,.94,26.58,1.41l-.09,1.3c-6.15-.66-12.3-1.32-18.45-1.98v.12c15.21,2.76,30.42,5.53,45.64,8.29l-.19,1.12c-2.54-.45-5.07-.94-7.62-1.36-15.57-2.56-31.14-5.09-46.7-7.65-.29-.05-.56-.26-.83-.4,.56-.28,1.11-.56,1.67-.85Z"/><path d="M552.82,453.07c1.02-.56,1.98-1.35,3.07-1.66,14.39-4,28.8-7.93,43.2-11.89,.48-.13,.92-.38,1.39-.58,.82-.01,1.64-.02,2.46-.03-3.77,1.22-7.5,2.56-11.31,3.63-12.01,3.37-24.05,6.63-36.08,9.92-.9,.25-1.81,.41-2.72,.61Z"/><path d="M387.19,437.2c-5.43-.08-7.85-1.06-8-3.54,.89,.33,1.66,.63,2.62,.99v-3.78l.41-.12c.65,1.46,.94,3.52,2.07,4.2,.84,.51,2.75-.77,4.95-1.5,.15,.62,.48,1.97,.81,3.32-.96,.15-1.91,.29-2.86,.43Z"/><path d="M374.8,175.54l-1.24-2.63c2.74,0,5.05,0,7.35,0,.09,.98,.19,1.96,.36,3.72-2.47-.41-4.47-.75-6.47-1.09Z"/><path d="M465.15,512.61c-.8,3.81-1.6,7.62-2.41,11.42-.17,.77-.42,1.53-.7,2.51-1.8-3.01-.29-11.19,2.51-14.88,.2,.31,.4,.63,.6,.94Z"/><path d="M464.15,399.67c-.79-.48-1.58-.96-2.36-1.43l.23-.81c3.23,0,6.47-.03,9.7,.07,.17,0,.32,1.02,.47,1.57-2.68,.2-5.36,.41-8.04,.61Z"/><path d="M451.99,541.39c-.79-.86-1.58-1.71-2.5-2.71h4c.5,.87,1.3,2.26,2.11,3.66-1.21-.32-2.41-.63-3.61-.95Z"/><path d="M211.3,452.09l14.11,2-.1,.78c-4.65-.66-9.3-1.32-13.95-1.98l-.07-.81Z"/><path d="M472.27,469.47c-4.1-.59-8.21-1.12-12.3-1.77-13.11-2.08-26.19-4.39-39.33-6.24-5.75-.81-11.62-.7-17.43-1.09-1.05-.07-2.08-.54-3.07-.99,11.31-.55,61.66,6.1,72.13,10.09Z"/><path d="M391.88,468.81l-57.45-7.84,.15-1.11c19.14,2.64,38.29,5.29,57.43,7.93l-.14,1.02Z"/><path d="M354.12,458.57c12.11,1.99,24.22,3.99,36.32,5.98l-.15,.97c-12.09-2.01-24.17-4.02-36.26-6.02l.08-.92Z"/><path d="M453.62,469.91c-10.36-1.38-20.72-2.76-31.07-4.13l.15-1.11c10.45,1.58,20.9,3.15,31.35,4.73l-.43,.51Z"/><path d="M374.67,456.49c6.01,.61,12.01,1.22,18.02,1.83l-.09,.86c-6.01-.62-12.01-1.24-18.02-1.85l.08-.83Z"/><path d="M468.9,447.72c-2.74,.05-5.52,.37-8.19-.04-.74-.12-1.41-2.37-1.65-3.73-.53-3-.77-6.05-.52-9.18,.74,3.04,1.47,6.08,2.21,9.12l1.27-.19c-.53-3.25-1.07-6.5-1.6-9.75l.76-.18c.75,2.5,1.33,5.06,2.29,7.48,1.08,2.72,1.82,5.89,5.48,6.52l-.04-.05Z"/><path d="M363.04,431.92c-.66-7.68-.78-15.34,1.25-22.86v22.81l-1.25,.05Z"/><path d="M457.26,447.4c-.35-.71-.71-1.41-1.12-2.24-.47,.67-.89,1.27-1.88,2.69-.78-2.55-1.33-4.36-1.88-6.16l.68-.28c.43,.64,.86,1.29,1.79,2.7,.78-.99,1.45-1.84,2.14-2.71,.33,1.82,.69,3.81,1.05,5.81-.26,.06-.52,.13-.78,.19Z"/><path d="M293.49,422.67c-.87-.29-1.73-.58-2.6-.87,.41-1.78,2.88-2.53,4.7-1.36l.53-2.28,.6-.05c.16,.8,.41,1.6,.45,2.41,.17,3.15-2.29,1.78-3.75,2.13l.06,.04Z"/><path d="M259.46,385.04c-.7,6.85-1.39,13.7-2.09,20.59-1.46-7.03-.2-13.8,2.09-20.59Z"/><path d="M262.99,405.51c-1.36-7.28-.48-13.66,1.3-19.99-.42,6.41-.84,12.83-1.3,19.99Z"/><path d="M461.32,432.85v-8.93c2.36,2.01,2.42,2.6,1,8.92h-1Z"/><path d="M328.62,420.47c.86-6.16,1.73-12.31,2.59-18.47,.27,.04,.54,.07,.81,.11-.81,6.16-1.62,12.33-2.43,18.49-.32-.04-.65-.09-.97-.13Z"/><path d="M259.92,403.7c.39-6.15,.77-12.3,1.16-18.44l.84,.05c-.46,6.14-.92,12.28-1.38,18.43l-.61-.03Z"/><path d="M266.21,405.96v-13.05h.7v13.15l-.7-.1Z"/><path d="M327.91,398.31c-.92,5.6-1.83,11.19-2.75,16.79l-.69-.1c.82-5.6,1.63-11.19,2.45-16.79l.99,.1Z"/><path d="M369.99,412.33c-.38,4.47-.75,8.94-1.13,13.4l-.98-.08,1.22-13.45c.3,.04,.59,.09,.89,.13Z"/><path d="M318.04,409.38c-.71,5.21-1.43,10.41-2.14,15.62l-.8-.1c.67-5.24,1.35-10.47,2.02-15.71,.31,.06,.61,.13,.92,.19Z"/><path d="M408.03,434.92c.2-3.96,.41-7.93,.61-11.89l.5,.02v11.91l-1.11-.04Z"/><path d="M402.69,428.74c.66-4.95,1.33-9.91,1.99-14.86l.93,.12c-.68,4.95-1.37,9.9-2.05,14.85-.29-.04-.58-.07-.86-.11Z"/><path d="M281.64,408.96l.65-13.13,.66,.05v13.15c-.43-.02-.87-.05-1.3-.07Z"/><path d="M347.88,418.44c.62-4.13,1.24-8.25,1.86-12.38l.78,.12c-.63,4.13-1.26,8.25-1.88,12.38l-.76-.12Z"/><path d="M231.27,399.23c-1.61-2.86-.76-7.52,1.89-10.09-.58,3.13-1.27,6.79-1.89,10.09Z"/><path d="M293.59,310.15c36.68,2.35,73.37,4.69,110.05,7.04l-.07,1.14c-36.68-2.43-73.36-4.87-110.04-7.3l.06-.88Z"/><path d="M426.42,354.1c3.62,.58,7.25,1.16,11.13,1.78-5.46-8.91-6.4-18.13-2.73-27.81-2.68,11.7,.11,22.16,7.24,31.94-4.44-4.83-10.77-3.07-15.63-5.92Z"/><path d="M250.06,310.61c-10.15-1.17-20.5,.21-30.55-2.27l.1-1.24c10.18,.77,20.37,1.53,30.55,2.3l-.09,1.21Z"/><path d="M420.86,350.66c-2.43-4.01-3.71-19.97-2.07-27.58,.65,8.63,1.4,18.68,2.07,27.58Z"/><path d="M377.27,347.01c-2.57-7.15-1.7-14.3,0-21.05v21.05Z"/><path d="M353.18,324.31v23.96l-.38,.03v-23.97l.38-.02Z"/><path d="M335.71,325.91c.64,6.38,1.3,12.96,1.97,19.62-2.06-2.67-2.94-11.84-1.97-19.62Z"/><path d="M412.58,330.31c.91,7.04,1.93,14.9,2.86,22.09-2.3-2.76-3.89-14.27-2.86-22.09Z"/><path d="M311.27,322.4c.59,6.8,1.19,13.6,1.85,21.26-2.93-7.41-2.24-14.3-1.85-21.26Z"/><path d="M344.44,326.98c.59,6.45,1.17,12.9,1.76,19.34l-1.17,.08-1.21-19.39,.62-.04Z"/><path d="M342.51,346.39c-2.81-6.73-.91-13.71-1.25-20.57,.42,6.86,.84,13.72,1.25,20.57Z"/><path d="M370.1,331.18c.8,5.72,1.68,12.03,2.56,18.33-2.06-2.64-3.46-13.45-2.56-18.33Z"/><path d="M384.77,351.66c-2.64-5.72-2.75-11.71-2.19-17.56,.71,5.71,1.45,11.64,2.19,17.56Z"/><path d="M408.27,352.05c-.6-5.61-1.2-11.21-1.8-16.82l.58-.06c.81,5.64,1.61,11.29,2.42,16.93l-1.2-.05Z"/><path d="M266.37,338.95c-.92-5.26-1.84-10.52-2.76-15.78l.58-.1c1.13,5.2,2.27,10.4,3.4,15.6l-1.22,.29Z"/><path d="M288.68,326.28c.61,4.67,1.23,9.34,1.9,14.42-2.25-3.04-2.87-8.45-1.9-14.42Z"/><path d="M401.48,334.95c.7,5.52,1.41,11.04,2.11,16.56l-.98,.11c-.6-5.53-1.2-11.06-1.8-16.59l.67-.07Z"/><path d="M260.7,337.93c-.73-4.28-1.46-8.56-2.19-12.84l.75-.13c.83,4.26,1.66,8.52,2.5,12.78l-1.05,.19Z"/><path d="M255.62,337.55c-.9-4.6-1.79-9.2-2.69-13.8l.57-.11c1.1,4.57,2.2,9.14,3.3,13.71l-1.18,.19Z"/><path d="M398.54,352.27c-.22-4.39-.44-8.77-.65-13.16l.53-.03c.42,4.36,.84,8.73,1.26,13.09-.38,.03-.76,.07-1.14,.1Z"/><path d="M222.04,333.76c-.59-4.39-1.19-8.78-1.78-13.16l.74-.1c.66,4.37,1.31,8.73,1.97,13.1-.31,.05-.62,.11-.93,.16Z"/><path d="M367.75,348.99c-.57-4.01-1.14-8.02-1.72-12.03l.67-.1c.66,4,1.32,7.99,1.98,11.99l-.93,.14Z"/><path d="M265.81,503.49c.18-.95,.47-1.89,.52-2.85,.3-5.75,.54-11.5,.8-17.26h1.11c0,.7,.05,1.4-.01,2.1-.07,.82-.35,1.64-.35,2.45-.02,4.36-.08,8.72,.09,13.08,.07,1.76-.41,2.55-2.18,2.44l.04,.04Z"/><path d="M320.53,513.36c-.88-6.27,.67-12.35,2.16-18.43-.45,6.17-.9,12.34-1.35,18.51-.27-.02-.54-.05-.81-.07Z"/><path d="M413.82,530.39l1.37-14.79,.65,.06c-.36,4.94-.71,9.87-1.07,14.81l-.94-.08Z"/><path d="M421.57,527.01v-14.98c.31,0,.61,0,.92,.01-.23,4.97-.45,9.95-.68,14.92l-.24,.04Z"/><path d="M365.48,523.56v-10.67l.46-.02c.33,2.86,.76,5.72,.91,8.59,.03,.66-.91,1.36-1.41,2.05l.05,.05Z"/><path d="M473.22,285.03c-3.86-10.02-4.1-20.23-1.45-30.58-.25,5.09-.87,10.19-.63,15.25,.25,5.13,1.35,10.22,2.08,15.32Z"/><path d="M443.14,277.7c-2.38-3.5-2.71-17.65,0-24.04v24.04Z"/><path d="M461.76,281.89c-3.21-8.9-3.59-17.96-2.14-27.14,.56,9.06-.8,18.26,2.14,27.14Z"/><path d="M465.26,282.16c-3.92-6.32-4.11-22.94-.89-26.81-.33,4.18-1.07,8.79-.93,13.37,.13,4.48,1.17,8.92,1.82,13.44Z"/><path d="M450.67,277.76c-2.49-4.94-2.78-17.21,0-23.44v23.44Z"/><path d="M468.74,283.65c-4.45-6.49-4.25-24.49,.11-29.56-3.83,9.81-2.49,19.3-.11,29.56Z"/><path d="M268.6,275.69c-2.82-6.42-2.66-13.04-1.24-20.48,.44,7.32,.84,13.9,1.24,20.48Z"/><path d="M260.01,275.64c-3.64-6.94-3.68-14.37-1.84-21.94,0,3.67-.24,7.36,.07,11.01,.31,3.67,1.16,7.29,1.78,10.94Z"/><path d="M457.46,282.57c-2.55-8.44-3-17.03-1.92-24.95,.6,7.83,1.26,16.39,1.92,24.95Z"/><path d="M252.61,255.66c.4,6.03,.85,12.92,1.26,19.22-2.45-2.33-3.31-15.31-1.26-19.22Z"/><path d="M263.39,256.9c.52,5.65,1.1,12.04,1.65,18.05-2.55-3.02-3.41-12.74-1.65-18.05Z"/><path d="M436.89,281.35c-2.29-8.22-1.53-15.87,0-23.56v23.56Z"/><path d="M445.75,280.36v-20.48h.7v20.48h-.7Z"/><path d="M413.18,276.64c-2.15-5.71-.92-11.31,0-16.9v16.9Z"/><path d="M261.79,253.61c-.29,3.69-.88,7.39-.78,11.07,.1,3.55,.92,7.08,1.24,10.62-2.98-7.19-2.67-14.48-.46-21.69Z"/><path d="M349.24,276.82c-.56-5.2-1.13-10.39-1.69-15.59l.75-.09,2.11,15.53-1.17,.14Z"/><path d="M325.33,260.29c.24,3.39,.63,9.02,1.02,14.65l-1.02,.03v-14.68Z"/><path d="M295.71,258.04v12.91c-1.94-4.36-.89-8.71,0-12.91Z"/><path d="M330.55,254.67v17.38c-2.05-6.12-.68-11.77-.8-17.37l.8-.02Z"/><path d="M319.28,262.15c.4,4.6,.79,9.21,1.19,13.81l-1.08,.1c-.38-4.61-.76-9.21-1.14-13.82l1.03-.09Z"/><path d="M415.57,273.64c.25-4.66,.51-9.33,.76-13.99h.34v14.04l-1.1-.05Z"/><path d="M254.82,258.32c.59,5.71,1.19,11.42,1.78,17.13-2.79-5.53-2.18-11.42-1.78-17.13Z"/><path d="M273.21,272.02c-2.05-4.3-1.92-8.7-.8-12.88,.26,4.11,.53,8.5,.8,12.88Z"/><path d="M438.63,262c.25,4.24,.55,9.36,.84,14.47l-.84,.02v-14.49Z"/><path d="M353.44,260.44c.45,4.47,.9,8.94,1.35,13.41l-1.11,.1-.91-13.36,.67-.16Z"/><path d="M278.42,259.2v11.08l-.61,.02v-10.99l.61-.11Z"/><path d="M363.72,266.02l.87,10.5-1.1,.09c-.24-3.48-.49-6.96-.73-10.45l.96-.14Z"/><path d="M431.67,276.46c.24-4.39,.48-8.77,.71-13.16l.46,.03v13.18l-1.17-.05Z"/><path d="M402.84,274.42v-13.58c.34,4.65,.66,9.06,.98,13.47l-.98,.1Z"/><path d="M394.61,260.9v10.09l-1.02-.05c.23-3.33,.46-6.65,.68-9.98l.34-.07Z"/><path d="M360.91,262.3c.35,4.05,.69,8.11,1.04,12.16l-1.03,.07c-.25-4.1-.49-8.2-.74-12.3l.73,.07Z"/><path d="M299.89,270.8l-1.15-10.84,.74-.09c.51,3.61,1.01,7.22,1.52,10.83l-1.1,.11Z"/><path d="M370.98,276.63v-7.49h.56v7.57l-.56-.08Z"/><path d="M333.76,260.28l.63,12.13-1,.04v-12.14l.36-.04Z"/><path d="M476.19,228.13c-1.29,5.73-1.16,11.28,1.76,16.59-3.84-.46-5.05-11.36-1.76-16.59Z"/><path d="M325.97,244.55c-2.98-5.06-3.14-10.12-1.72-15.76,.59,5.41,1.13,10.43,1.72,15.76Z"/><path d="M295.7,243.37c-2.87-4.97-2.06-9.9,0-14.85v14.85Z"/><path d="M378.73,243.96c-2.49-5.74-1.98-11.68,0-17.87v17.87Z"/><path d="M454.45,240.6c-1.7-5.08-1.76-10.11,0-15.35v15.35Z"/><path d="M273.2,244.4c-1.97-4.75-2.41-9.1,0-14.28v14.28Z"/><path d="M270.03,244.49c-2.7-4.56-2.78-8.4-1.03-12.31,.32,3.81,.64,7.63,1.03,12.31Z"/><path d="M373.69,145.97c-3.89-8.82-4.76-17.51-3.28-27.14,1.12,9.32,2.17,17.98,3.28,27.14Z"/><path d="M323.51,145.66c-2.36-7.35-2.76-14.53,0-21.8v21.8Z"/><path d="M308.85,144.73c-1.84-6.02-2.63-12.08,0-18.17v18.17Z"/><path d="M285.68,133.79c.26,5.26,.51,10.52,.78,15.99-.92,.22-1.86,.45-3.25,.79,3.53-5.49,1.21-11.36,2.47-16.78Z"/><path d="M398.35,123.7c.69,5.74,1.39,11.48,2.08,17.22-2.65-5.51-2.7-11.37-2.08-17.22Z"/><path d="M337.65,149.76c-3.02-4.5-2.66-9.63-2.41-14.74l2.41,14.74Z"/><path d="M359.72,140.18c-2.61-4.58-2.67-9.54-2-14.6,.67,4.87,1.33,9.73,2,14.6Z"/><path d="M274.33,134.88c3.24-1.21,6.49-2.41,9.73-3.62l.53,1.45c-3.3,1.08-6.59,2.15-9.89,3.23l-.37-1.06Z"/><path d="M347.14,127.53v12.69h-.59v-12.73l.59,.04Z"/><path d="M379.35,139.03l-1.88-13.42,.92-.13c.68,4.47,1.37,8.93,2.05,13.4l-1.09,.16Z"/><path d="M285.13,127.92c-3.58,.99-7.17,1.97-10.75,2.96l-.27-.91c3.57-1.05,7.13-2.1,10.7-3.14l.32,1.09Z"/><path d="M272.41,143.53c-3.88,.8-5.45-.39-5.43-4.1,1.91,1.45,3.47,2.62,5.43,4.1Z"/><path d="M284.4,144.79l-7.23-.42c2.41-2.38,5.63-2.11,7.23,.42Z"/><path d="M424.65,171.46c-3.7-3.37-4.86-19.16-1.89-22.94,.6,7.29,1.27,15.41,1.89,22.94Z"/><path d="M412.47,173.52c-4.53-2.04-6.52-13.62-3.96-22.65,.32,7.7-.71,15.65,3.96,22.65Z"/><path d="M413.94,150.61c.86,6.94,1.72,13.89,2.59,20.83-2.96-6.73-3.09-13.82-2.59-20.83Z"/><path d="M421.7,173.28c-3.47-6.75-4.17-13.37-3.53-19.92,1.11,6.25,2.26,12.79,3.53,19.92Z"/><path d="M371.1,175.08c-1.27,3.09-2.25,.28-2.42-.36-.91-3.35-1.53-6.79-2.01-10.15,1.49,3.51,2.98,7.03,4.46,10.54l-.02-.03Z"/><path d="M297.38,181.37c-.89-3.92-1.78-7.85-2.67-11.77l.79-.17c1.06,3.93,2.12,7.86,3.18,11.79l-1.29,.16Z"/><path d="M300.69,177.58c-2.84-3.74-2.55-7.99-2.19-13.18,.83,5,1.51,9.09,2.19,13.18Z"/><path d="M400.03,169.38l-1.06-12.45,.69-.06c.47,4.14,.94,8.28,1.42,12.42l-1.05,.09Z"/><path d="M469.58,125.15c25.55,.14,50.84,3.49,76.22,5.8l-.1,1.18c-25.37-2.33-50.75-4.65-76.12-6.98Z"/><path d="M514.82,132.16c10.94,.76,21.89,1.52,32.83,2.28l-.09,1.19c-10.93-.91-21.86-1.82-32.8-2.74l.05-.73Z"/><path d="M537.6,332.81c-15.72,1.44-31.45,2.87-47.17,4.31-.02-.29-.05-.59-.07-.88,15.77-.87,31.36-4,47.18-4.18l.06,.76Z"/><path d="M486.55,332.44c14.85-1.32,29.7-2.64,44.55-3.95l.09,1.15c-14.83,1.18-29.65,2.36-44.48,3.55l-.16-.74Z"/><path d="M545.93,317.43c-14.79,1.17-29.57,2.34-44.36,3.51l-.07-.91c14.79-1.15,29.58-2.3,44.37-3.45l.06,.85Z"/><path d="M535.77,336.57c-11.59,1.25-23.17,2.49-34.76,3.74l-.09-.76c11.54-1.36,23.09-2.71,34.63-4.07l.21,1.09Z"/><path d="M496.55,327c10.54-1.16,21.08-2.32,31.62-3.48l.1,1.05c-10.55,1.06-21.11,2.12-31.66,3.18l-.06-.74Z"/><path d="M527.44,342.44c-7.87,.7-15.74,1.41-23.61,2.11l-.07-.88c7.86-.74,15.72-1.48,23.58-2.22,.03,.33,.07,.66,.1,.99Z"/><path d="M344.16,302.33c-1.87-2.77-2.79-8.33-2.06-13.93,.75,5.19,1.38,9.57,2.01,13.96l.04-.04Z"/><path d="M506.89,480.66c13.91-4.14,27.8-8.37,41.74-12.4,18.16-5.25,36.37-10.34,54.56-15.49,.37-.11,.79-.06,1.34,.48-2.68,.82-5.35,1.7-8.04,2.47-19.76,5.64-39.52,11.26-59.28,16.89-9.97,2.84-19.93,5.7-29.89,8.55l-.43-.51Z"/><path d="M526.16,471.99c25.75-7.4,51.49-14.79,77.24-22.19l.35,1.22c-25.76,7.31-51.52,14.63-77.29,21.94l-.3-.97Z"/><path d="M507.32,481.17c-6.63,2.12-13.27,4.23-19.9,6.35l-.31-1c6.59-1.95,13.19-3.9,19.78-5.85,.14,.17,.29,.34,.43,.51Z"/><path d="M543.68,474.06c-6.34,1.75-12.68,3.5-19.03,5.25-.08-.29-.16-.57-.23-.86,6.34-1.75,12.69-3.5,19.03-5.25l.23,.85Z"/><path d="M485.67,491.1c4.27-1.4,8.53-2.8,12.8-4.2,.13,.44,.26,.89,.39,1.33-4.32,1.21-8.65,2.42-12.97,3.63-.07-.25-.14-.51-.21-.76Z"/><path d="M516.41,469.61c4.4-1.34,8.79-2.68,13.19-4.01l.26,.83c-4.42,1.36-8.84,2.71-13.25,4.07l-.19-.89Z"/><path d="M590.6,445.23c-3.97,1.14-7.95,2.28-11.92,3.43l-.25-.84c3.95-1.14,7.91-2.28,11.86-3.41,.1,.28,.2,.55,.3,.83Z"/><path d="M562.05,456.24c3.99-1.25,7.99-2.51,11.98-3.76,.09,.32,.19,.63,.28,.95-3.95,1.1-7.91,2.19-11.86,3.29-.13-.16-.27-.31-.4-.47Z"/><path d="M562.45,456.71c-3.99,1.26-7.97,2.52-11.96,3.78-.09-.31-.18-.61-.28-.92,3.95-1.11,7.89-2.22,11.84-3.34,.13,.16,.27,.31,.4,.47Z"/><path d="M469.21,197.42h34.41v.46h-34.45l.04-.46Z"/><path d="M513.89,97.52c-8.05-.88-16.11-1.69-24.15-2.65-7.85-.93-15.67-2.01-23.51-3.03-.48-.06-.96-.18-1.37-.91,4.6,.47,9.22,.86,13.81,1.43,11.34,1.4,22.66,2.87,33.99,4.34,.49,.06,.94,.38,1.41,.57l-.19,.24Z"/><path d="M477.37,163.84c22.46,.62,44.92,1.24,67.38,1.85-.01,.41-.03,.82-.04,1.23-22.47-.8-44.93-1.6-67.4-2.39l.06-.69Z"/><path d="M477.38,158.58c22,1.43,44,2.87,66.01,4.3l-.07,1.01c-22.03-1.5-44.06-2.99-66.09-4.49l.15-.83Z"/><path d="M528.74,156.37h-33.37v-.55h33.35l.02,.55Z"/><path d="M502.77,435.58c20.7-5.6,41.3-11.17,62.72-16.97-5.05,3.31-57.32,17.23-62.72,16.97Z"/><path d="M538.41,412.48c6.41-1.48,12.83-2.96,19.24-4.45,.08,.33,.15,.66,.23,.98-6.42,1.44-12.85,2.87-19.27,4.31l-.2-.85Z"/><path d="M545.43,418.89c6.09-1.31,12.19-2.61,18.28-3.92l.22,1.06c-6.11,1.24-12.23,2.48-18.34,3.72l-.16-.86Z"/><path d="M548.26,412.44c4.96-.75,10.12-1.53,15.27-2.31-4.92,2.45-10.16,2.67-15.27,2.31Z"/><path d="M508.99,296.76c20.54-1.02,41.07-2.05,61.61-3.07l.05,1.11c-20.51,.95-41.02,1.91-61.53,2.87-.04-.3-.09-.6-.13-.9Z"/><path d="M529.18,298.26c13.94-.82,27.88-1.64,41.83-2.45l.06,1.33-41.83,1.84-.06-.71Z"/><path d="M565.27,375.11c-11.5,1.69-22.99,3.38-34.49,5.07l-.1-.68c11.47-1.84,22.94-3.68,34.42-5.53,.06,.38,.12,.76,.17,1.14Z"/><path d="M539.63,374.97c8.71-1.18,17.43-2.35,26.14-3.53l.16,1.28c-8.73,1.03-17.46,2.05-26.19,3.08-.04-.28-.08-.55-.12-.83Z"/><path d="M543.24,379.65l22.18-3.19c.04,.34,.09,.68,.13,1.02-7.4,.98-14.81,1.96-22.21,2.93l-.1-.77Z"/><path d="M444.5,400.77c1.31,.22,2.64,.38,3.93,.69,.58,.14,1.1,.56,1.65,.85-.53,.54-1.32,1.63-1.54,1.53-1.57-.76-3.03-1.76-4.53-2.69l.48-.38Z"/><path d="M435.78,311.17c-3.56-6.25-3.74-12.88-2.44-19.83,.81,6.7,1.6,13.25,2.39,19.8l.05,.03Z"/><path d="M410.92,289.71c.74,6.53,1.44,12.7,2.13,18.87-2.63-6.01-2.94-12.22-2.13-18.87Z"/><path d="M440.3,292.48c.73,5.74,1.51,11.82,2.27,17.74-2.23-2.31-3.51-12.33-2.27-17.74Z"/><path d="M414.73,290.85c.49,5.82,.98,11.65,1.47,17.47-3.16-5.63-1.63-11.63-1.47-17.47Z"/><path d="M372.91,372.93c3.15,.33,6.29,.66,9.44,.99-3.29,1.69-6.39,.38-9.54-.11l.1-.88Z"/><path d="M511.07,369.16c-6.83,1.63-13.65,3.25-20.72,4.94-.06-1.17-.13-2.49-.21-3.81l.67-.15c.37,.76,.74,1.52,.99,2.04,6.42-1.23,12.78-2.45,19.14-3.67l.13,.65Z"/><path d="M517.23,367.31c-2.16,.7-4.36,1.99-6.34-.99h6.37l-.03,.99Z"/></svg>